%TF.GenerationSoftware,KiCad,Pcbnew,6.0.11+dfsg-1*%
%TF.CreationDate,2023-07-27T12:15:27+02:00*%
%TF.ProjectId,CartesianRobotElectricalDocs,43617274-6573-4696-916e-526f626f7445,rev?*%
%TF.SameCoordinates,Original*%
%TF.FileFunction,OtherDrawing,Comment*%
%FSLAX46Y46*%
G04 Gerber Fmt 4.6, Leading zero omitted, Abs format (unit mm)*
G04 Created by KiCad (PCBNEW 6.0.11+dfsg-1) date 2023-07-27 12:15:27*
%MOMM*%
%LPD*%
G01*
G04 APERTURE LIST*
%ADD10C,0.250000*%
%ADD11C,0.200000*%
G04 APERTURE END LIST*
D10*
X128198571Y-92471428D02*
X128198571Y-92138095D01*
X128722380Y-91995238D02*
X128722380Y-92471428D01*
X127722380Y-92471428D01*
X127722380Y-91995238D01*
X128055714Y-91566666D02*
X128722380Y-91566666D01*
X128150952Y-91566666D02*
X128103333Y-91519047D01*
X128055714Y-91423809D01*
X128055714Y-91280952D01*
X128103333Y-91185714D01*
X128198571Y-91138095D01*
X128722380Y-91138095D01*
X128722380Y-90233333D02*
X127722380Y-90233333D01*
X128674761Y-90233333D02*
X128722380Y-90328571D01*
X128722380Y-90519047D01*
X128674761Y-90614285D01*
X128627142Y-90661904D01*
X128531904Y-90709523D01*
X128246190Y-90709523D01*
X128150952Y-90661904D01*
X128103333Y-90614285D01*
X128055714Y-90519047D01*
X128055714Y-90328571D01*
X128103333Y-90233333D01*
X128674761Y-89804761D02*
X128722380Y-89709523D01*
X128722380Y-89519047D01*
X128674761Y-89423809D01*
X128579523Y-89376190D01*
X128531904Y-89376190D01*
X128436666Y-89423809D01*
X128389047Y-89519047D01*
X128389047Y-89661904D01*
X128341428Y-89757142D01*
X128246190Y-89804761D01*
X128198571Y-89804761D01*
X128103333Y-89757142D01*
X128055714Y-89661904D01*
X128055714Y-89519047D01*
X128103333Y-89423809D01*
X128055714Y-89090476D02*
X128055714Y-88709523D01*
X127722380Y-88947619D02*
X128579523Y-88947619D01*
X128674761Y-88900000D01*
X128722380Y-88804761D01*
X128722380Y-88709523D01*
X128722380Y-88233333D02*
X128674761Y-88328571D01*
X128627142Y-88376190D01*
X128531904Y-88423809D01*
X128246190Y-88423809D01*
X128150952Y-88376190D01*
X128103333Y-88328571D01*
X128055714Y-88233333D01*
X128055714Y-88090476D01*
X128103333Y-87995238D01*
X128150952Y-87947619D01*
X128246190Y-87900000D01*
X128531904Y-87900000D01*
X128627142Y-87947619D01*
X128674761Y-87995238D01*
X128722380Y-88090476D01*
X128722380Y-88233333D01*
X128055714Y-87471428D02*
X129055714Y-87471428D01*
X128103333Y-87471428D02*
X128055714Y-87376190D01*
X128055714Y-87185714D01*
X128103333Y-87090476D01*
X128150952Y-87042857D01*
X128246190Y-86995238D01*
X128531904Y-86995238D01*
X128627142Y-87042857D01*
X128674761Y-87090476D01*
X128722380Y-87185714D01*
X128722380Y-87376190D01*
X128674761Y-87471428D01*
X127722380Y-85900000D02*
X127722380Y-85280952D01*
X128103333Y-85614285D01*
X128103333Y-85471428D01*
X128150952Y-85376190D01*
X128198571Y-85328571D01*
X128293809Y-85280952D01*
X128531904Y-85280952D01*
X128627142Y-85328571D01*
X128674761Y-85376190D01*
X128722380Y-85471428D01*
X128722380Y-85757142D01*
X128674761Y-85852380D01*
X128627142Y-85900000D01*
X118038571Y-92471428D02*
X118038571Y-92138095D01*
X118562380Y-91995238D02*
X118562380Y-92471428D01*
X117562380Y-92471428D01*
X117562380Y-91995238D01*
X117895714Y-91566666D02*
X118562380Y-91566666D01*
X117990952Y-91566666D02*
X117943333Y-91519047D01*
X117895714Y-91423809D01*
X117895714Y-91280952D01*
X117943333Y-91185714D01*
X118038571Y-91138095D01*
X118562380Y-91138095D01*
X118562380Y-90233333D02*
X117562380Y-90233333D01*
X118514761Y-90233333D02*
X118562380Y-90328571D01*
X118562380Y-90519047D01*
X118514761Y-90614285D01*
X118467142Y-90661904D01*
X118371904Y-90709523D01*
X118086190Y-90709523D01*
X117990952Y-90661904D01*
X117943333Y-90614285D01*
X117895714Y-90519047D01*
X117895714Y-90328571D01*
X117943333Y-90233333D01*
X118514761Y-89804761D02*
X118562380Y-89709523D01*
X118562380Y-89519047D01*
X118514761Y-89423809D01*
X118419523Y-89376190D01*
X118371904Y-89376190D01*
X118276666Y-89423809D01*
X118229047Y-89519047D01*
X118229047Y-89661904D01*
X118181428Y-89757142D01*
X118086190Y-89804761D01*
X118038571Y-89804761D01*
X117943333Y-89757142D01*
X117895714Y-89661904D01*
X117895714Y-89519047D01*
X117943333Y-89423809D01*
X117895714Y-89090476D02*
X117895714Y-88709523D01*
X117562380Y-88947619D02*
X118419523Y-88947619D01*
X118514761Y-88900000D01*
X118562380Y-88804761D01*
X118562380Y-88709523D01*
X118562380Y-88233333D02*
X118514761Y-88328571D01*
X118467142Y-88376190D01*
X118371904Y-88423809D01*
X118086190Y-88423809D01*
X117990952Y-88376190D01*
X117943333Y-88328571D01*
X117895714Y-88233333D01*
X117895714Y-88090476D01*
X117943333Y-87995238D01*
X117990952Y-87947619D01*
X118086190Y-87900000D01*
X118371904Y-87900000D01*
X118467142Y-87947619D01*
X118514761Y-87995238D01*
X118562380Y-88090476D01*
X118562380Y-88233333D01*
X117895714Y-87471428D02*
X118895714Y-87471428D01*
X117943333Y-87471428D02*
X117895714Y-87376190D01*
X117895714Y-87185714D01*
X117943333Y-87090476D01*
X117990952Y-87042857D01*
X118086190Y-86995238D01*
X118371904Y-86995238D01*
X118467142Y-87042857D01*
X118514761Y-87090476D01*
X118562380Y-87185714D01*
X118562380Y-87376190D01*
X118514761Y-87471428D01*
X117657619Y-85852380D02*
X117610000Y-85804761D01*
X117562380Y-85709523D01*
X117562380Y-85471428D01*
X117610000Y-85376190D01*
X117657619Y-85328571D01*
X117752857Y-85280952D01*
X117848095Y-85280952D01*
X117990952Y-85328571D01*
X118562380Y-85900000D01*
X118562380Y-85280952D01*
X107878571Y-92471428D02*
X107878571Y-92138095D01*
X108402380Y-91995238D02*
X108402380Y-92471428D01*
X107402380Y-92471428D01*
X107402380Y-91995238D01*
X107735714Y-91566666D02*
X108402380Y-91566666D01*
X107830952Y-91566666D02*
X107783333Y-91519047D01*
X107735714Y-91423809D01*
X107735714Y-91280952D01*
X107783333Y-91185714D01*
X107878571Y-91138095D01*
X108402380Y-91138095D01*
X108402380Y-90233333D02*
X107402380Y-90233333D01*
X108354761Y-90233333D02*
X108402380Y-90328571D01*
X108402380Y-90519047D01*
X108354761Y-90614285D01*
X108307142Y-90661904D01*
X108211904Y-90709523D01*
X107926190Y-90709523D01*
X107830952Y-90661904D01*
X107783333Y-90614285D01*
X107735714Y-90519047D01*
X107735714Y-90328571D01*
X107783333Y-90233333D01*
X108354761Y-89804761D02*
X108402380Y-89709523D01*
X108402380Y-89519047D01*
X108354761Y-89423809D01*
X108259523Y-89376190D01*
X108211904Y-89376190D01*
X108116666Y-89423809D01*
X108069047Y-89519047D01*
X108069047Y-89661904D01*
X108021428Y-89757142D01*
X107926190Y-89804761D01*
X107878571Y-89804761D01*
X107783333Y-89757142D01*
X107735714Y-89661904D01*
X107735714Y-89519047D01*
X107783333Y-89423809D01*
X107735714Y-89090476D02*
X107735714Y-88709523D01*
X107402380Y-88947619D02*
X108259523Y-88947619D01*
X108354761Y-88900000D01*
X108402380Y-88804761D01*
X108402380Y-88709523D01*
X108402380Y-88233333D02*
X108354761Y-88328571D01*
X108307142Y-88376190D01*
X108211904Y-88423809D01*
X107926190Y-88423809D01*
X107830952Y-88376190D01*
X107783333Y-88328571D01*
X107735714Y-88233333D01*
X107735714Y-88090476D01*
X107783333Y-87995238D01*
X107830952Y-87947619D01*
X107926190Y-87900000D01*
X108211904Y-87900000D01*
X108307142Y-87947619D01*
X108354761Y-87995238D01*
X108402380Y-88090476D01*
X108402380Y-88233333D01*
X107735714Y-87471428D02*
X108735714Y-87471428D01*
X107783333Y-87471428D02*
X107735714Y-87376190D01*
X107735714Y-87185714D01*
X107783333Y-87090476D01*
X107830952Y-87042857D01*
X107926190Y-86995238D01*
X108211904Y-86995238D01*
X108307142Y-87042857D01*
X108354761Y-87090476D01*
X108402380Y-87185714D01*
X108402380Y-87376190D01*
X108354761Y-87471428D01*
X108402380Y-85280952D02*
X108402380Y-85852380D01*
X108402380Y-85566666D02*
X107402380Y-85566666D01*
X107545238Y-85661904D01*
X107640476Y-85757142D01*
X107688095Y-85852380D01*
D11*
X160140000Y-118075000D02*
X200780000Y-118075000D01*
X200780000Y-118075000D02*
X200780000Y-95469000D01*
X200780000Y-95469000D02*
X160140000Y-95469000D01*
X160140000Y-95469000D02*
X160140000Y-118075000D01*
X160140000Y-95519800D02*
X200780000Y-95519800D01*
X200780000Y-95519800D02*
X200780000Y-73371000D01*
X200780000Y-73371000D02*
X160140000Y-73371000D01*
X160140000Y-73371000D02*
X160140000Y-95519800D01*
X160140000Y-73371000D02*
X200780000Y-73371000D01*
X200780000Y-73371000D02*
X200780000Y-49495000D01*
X200780000Y-49495000D02*
X160140000Y-49495000D01*
X160140000Y-49495000D02*
X160140000Y-73371000D01*
D10*
X161060952Y-91844761D02*
X161203809Y-91892380D01*
X161441904Y-91892380D01*
X161537142Y-91844761D01*
X161584761Y-91797142D01*
X161632380Y-91701904D01*
X161632380Y-91606666D01*
X161584761Y-91511428D01*
X161537142Y-91463809D01*
X161441904Y-91416190D01*
X161251428Y-91368571D01*
X161156190Y-91320952D01*
X161108571Y-91273333D01*
X161060952Y-91178095D01*
X161060952Y-91082857D01*
X161108571Y-90987619D01*
X161156190Y-90940000D01*
X161251428Y-90892380D01*
X161489523Y-90892380D01*
X161632380Y-90940000D01*
X161918095Y-90892380D02*
X162489523Y-90892380D01*
X162203809Y-91892380D02*
X162203809Y-90892380D01*
X162822857Y-91368571D02*
X163156190Y-91368571D01*
X163299047Y-91892380D02*
X162822857Y-91892380D01*
X162822857Y-90892380D01*
X163299047Y-90892380D01*
X163727619Y-91892380D02*
X163727619Y-90892380D01*
X164108571Y-90892380D01*
X164203809Y-90940000D01*
X164251428Y-90987619D01*
X164299047Y-91082857D01*
X164299047Y-91225714D01*
X164251428Y-91320952D01*
X164203809Y-91368571D01*
X164108571Y-91416190D01*
X163727619Y-91416190D01*
X130112380Y-60393095D02*
X129112380Y-60393095D01*
X129112380Y-60155000D01*
X129160000Y-60012142D01*
X129255238Y-59916904D01*
X129350476Y-59869285D01*
X129540952Y-59821666D01*
X129683809Y-59821666D01*
X129874285Y-59869285D01*
X129969523Y-59916904D01*
X130064761Y-60012142D01*
X130112380Y-60155000D01*
X130112380Y-60393095D01*
X130112380Y-58869285D02*
X130112380Y-59440714D01*
X130112380Y-59155000D02*
X129112380Y-59155000D01*
X129255238Y-59250238D01*
X129350476Y-59345476D01*
X129398095Y-59440714D01*
X142288571Y-60393095D02*
X142288571Y-60059761D01*
X142812380Y-59916904D02*
X142812380Y-60393095D01*
X141812380Y-60393095D01*
X141812380Y-59916904D01*
X142812380Y-59488333D02*
X141812380Y-59488333D01*
X142812380Y-58916904D01*
X141812380Y-58916904D01*
X161060952Y-113434761D02*
X161203809Y-113482380D01*
X161441904Y-113482380D01*
X161537142Y-113434761D01*
X161584761Y-113387142D01*
X161632380Y-113291904D01*
X161632380Y-113196666D01*
X161584761Y-113101428D01*
X161537142Y-113053809D01*
X161441904Y-113006190D01*
X161251428Y-112958571D01*
X161156190Y-112910952D01*
X161108571Y-112863333D01*
X161060952Y-112768095D01*
X161060952Y-112672857D01*
X161108571Y-112577619D01*
X161156190Y-112530000D01*
X161251428Y-112482380D01*
X161489523Y-112482380D01*
X161632380Y-112530000D01*
X161918095Y-112482380D02*
X162489523Y-112482380D01*
X162203809Y-113482380D02*
X162203809Y-112482380D01*
X162822857Y-112958571D02*
X163156190Y-112958571D01*
X163299047Y-113482380D02*
X162822857Y-113482380D01*
X162822857Y-112482380D01*
X163299047Y-112482380D01*
X163727619Y-113482380D02*
X163727619Y-112482380D01*
X164108571Y-112482380D01*
X164203809Y-112530000D01*
X164251428Y-112577619D01*
X164299047Y-112672857D01*
X164299047Y-112815714D01*
X164251428Y-112910952D01*
X164203809Y-112958571D01*
X164108571Y-113006190D01*
X163727619Y-113006190D01*
X132652380Y-60393095D02*
X131652380Y-60393095D01*
X131652380Y-60155000D01*
X131700000Y-60012142D01*
X131795238Y-59916904D01*
X131890476Y-59869285D01*
X132080952Y-59821666D01*
X132223809Y-59821666D01*
X132414285Y-59869285D01*
X132509523Y-59916904D01*
X132604761Y-60012142D01*
X132652380Y-60155000D01*
X132652380Y-60393095D01*
X131747619Y-59440714D02*
X131700000Y-59393095D01*
X131652380Y-59297857D01*
X131652380Y-59059761D01*
X131700000Y-58964523D01*
X131747619Y-58916904D01*
X131842857Y-58869285D01*
X131938095Y-58869285D01*
X132080952Y-58916904D01*
X132652380Y-59488333D01*
X132652380Y-58869285D01*
X161941904Y-76128571D02*
X162275238Y-76128571D01*
X162418095Y-76652380D02*
X161941904Y-76652380D01*
X161941904Y-75652380D01*
X162418095Y-75652380D01*
X162846666Y-76652380D02*
X162846666Y-75652380D01*
X163418095Y-76652380D01*
X163418095Y-75652380D01*
X184714523Y-67997380D02*
X184238333Y-67997380D01*
X184190714Y-68473571D01*
X184238333Y-68425952D01*
X184333571Y-68378333D01*
X184571666Y-68378333D01*
X184666904Y-68425952D01*
X184714523Y-68473571D01*
X184762142Y-68568809D01*
X184762142Y-68806904D01*
X184714523Y-68902142D01*
X184666904Y-68949761D01*
X184571666Y-68997380D01*
X184333571Y-68997380D01*
X184238333Y-68949761D01*
X184190714Y-68902142D01*
X185047857Y-67997380D02*
X185381190Y-68997380D01*
X185714523Y-67997380D01*
X139320000Y-50256904D02*
X139272380Y-50352142D01*
X139272380Y-50495000D01*
X139320000Y-50637857D01*
X139415238Y-50733095D01*
X139510476Y-50780714D01*
X139700952Y-50828333D01*
X139843809Y-50828333D01*
X140034285Y-50780714D01*
X140129523Y-50733095D01*
X140224761Y-50637857D01*
X140272380Y-50495000D01*
X140272380Y-50399761D01*
X140224761Y-50256904D01*
X140177142Y-50209285D01*
X139843809Y-50209285D01*
X139843809Y-50399761D01*
X140272380Y-49780714D02*
X139272380Y-49780714D01*
X140272380Y-49209285D01*
X139272380Y-49209285D01*
X140272380Y-48733095D02*
X139272380Y-48733095D01*
X139272380Y-48495000D01*
X139320000Y-48352142D01*
X139415238Y-48256904D01*
X139510476Y-48209285D01*
X139700952Y-48161666D01*
X139843809Y-48161666D01*
X140034285Y-48209285D01*
X140129523Y-48256904D01*
X140224761Y-48352142D01*
X140272380Y-48495000D01*
X140272380Y-48733095D01*
X183965952Y-53757380D02*
X183394523Y-53757380D01*
X183680238Y-53757380D02*
X183680238Y-52757380D01*
X183585000Y-52900238D01*
X183489761Y-52995476D01*
X183394523Y-53043095D01*
X184346904Y-52852619D02*
X184394523Y-52805000D01*
X184489761Y-52757380D01*
X184727857Y-52757380D01*
X184823095Y-52805000D01*
X184870714Y-52852619D01*
X184918333Y-52947857D01*
X184918333Y-53043095D01*
X184870714Y-53185952D01*
X184299285Y-53757380D01*
X184918333Y-53757380D01*
X185204047Y-52757380D02*
X185537380Y-53757380D01*
X185870714Y-52757380D01*
X124984761Y-50256904D02*
X125032380Y-50114047D01*
X125032380Y-49875952D01*
X124984761Y-49780714D01*
X124937142Y-49733095D01*
X124841904Y-49685476D01*
X124746666Y-49685476D01*
X124651428Y-49733095D01*
X124603809Y-49780714D01*
X124556190Y-49875952D01*
X124508571Y-50066428D01*
X124460952Y-50161666D01*
X124413333Y-50209285D01*
X124318095Y-50256904D01*
X124222857Y-50256904D01*
X124127619Y-50209285D01*
X124080000Y-50161666D01*
X124032380Y-50066428D01*
X124032380Y-49828333D01*
X124080000Y-49685476D01*
X125032380Y-48733095D02*
X125032380Y-49304523D01*
X125032380Y-49018809D02*
X124032380Y-49018809D01*
X124175238Y-49114047D01*
X124270476Y-49209285D01*
X124318095Y-49304523D01*
X121540000Y-50256904D02*
X121492380Y-50352142D01*
X121492380Y-50495000D01*
X121540000Y-50637857D01*
X121635238Y-50733095D01*
X121730476Y-50780714D01*
X121920952Y-50828333D01*
X122063809Y-50828333D01*
X122254285Y-50780714D01*
X122349523Y-50733095D01*
X122444761Y-50637857D01*
X122492380Y-50495000D01*
X122492380Y-50399761D01*
X122444761Y-50256904D01*
X122397142Y-50209285D01*
X122063809Y-50209285D01*
X122063809Y-50399761D01*
X122492380Y-49780714D02*
X121492380Y-49780714D01*
X122492380Y-49209285D01*
X121492380Y-49209285D01*
X122492380Y-48733095D02*
X121492380Y-48733095D01*
X121492380Y-48495000D01*
X121540000Y-48352142D01*
X121635238Y-48256904D01*
X121730476Y-48209285D01*
X121920952Y-48161666D01*
X122063809Y-48161666D01*
X122254285Y-48209285D01*
X122349523Y-48256904D01*
X122444761Y-48352142D01*
X122492380Y-48495000D01*
X122492380Y-48733095D01*
X161394285Y-100782380D02*
X161394285Y-99782380D01*
X161727619Y-100496666D01*
X162060952Y-99782380D01*
X162060952Y-100782380D01*
X162489523Y-100734761D02*
X162632380Y-100782380D01*
X162870476Y-100782380D01*
X162965714Y-100734761D01*
X163013333Y-100687142D01*
X163060952Y-100591904D01*
X163060952Y-100496666D01*
X163013333Y-100401428D01*
X162965714Y-100353809D01*
X162870476Y-100306190D01*
X162680000Y-100258571D01*
X162584761Y-100210952D01*
X162537142Y-100163333D01*
X162489523Y-100068095D01*
X162489523Y-99972857D01*
X162537142Y-99877619D01*
X162584761Y-99830000D01*
X162680000Y-99782380D01*
X162918095Y-99782380D01*
X163060952Y-99830000D01*
X164013333Y-100782380D02*
X163441904Y-100782380D01*
X163727619Y-100782380D02*
X163727619Y-99782380D01*
X163632380Y-99925238D01*
X163537142Y-100020476D01*
X163441904Y-100068095D01*
X184658095Y-115070000D02*
X184562857Y-115022380D01*
X184420000Y-115022380D01*
X184277142Y-115070000D01*
X184181904Y-115165238D01*
X184134285Y-115260476D01*
X184086666Y-115450952D01*
X184086666Y-115593809D01*
X184134285Y-115784285D01*
X184181904Y-115879523D01*
X184277142Y-115974761D01*
X184420000Y-116022380D01*
X184515238Y-116022380D01*
X184658095Y-115974761D01*
X184705714Y-115927142D01*
X184705714Y-115593809D01*
X184515238Y-115593809D01*
X185134285Y-116022380D02*
X185134285Y-115022380D01*
X185705714Y-116022380D01*
X185705714Y-115022380D01*
X186181904Y-116022380D02*
X186181904Y-115022380D01*
X186420000Y-115022380D01*
X186562857Y-115070000D01*
X186658095Y-115165238D01*
X186705714Y-115260476D01*
X186753333Y-115450952D01*
X186753333Y-115593809D01*
X186705714Y-115784285D01*
X186658095Y-115879523D01*
X186562857Y-115974761D01*
X186420000Y-116022380D01*
X186181904Y-116022380D01*
X161798095Y-45220000D02*
X161702857Y-45172380D01*
X161560000Y-45172380D01*
X161417142Y-45220000D01*
X161321904Y-45315238D01*
X161274285Y-45410476D01*
X161226666Y-45600952D01*
X161226666Y-45743809D01*
X161274285Y-45934285D01*
X161321904Y-46029523D01*
X161417142Y-46124761D01*
X161560000Y-46172380D01*
X161655238Y-46172380D01*
X161798095Y-46124761D01*
X161845714Y-46077142D01*
X161845714Y-45743809D01*
X161655238Y-45743809D01*
X162274285Y-46172380D02*
X162274285Y-45172380D01*
X162845714Y-46172380D01*
X162845714Y-45172380D01*
X163321904Y-46172380D02*
X163321904Y-45172380D01*
X163560000Y-45172380D01*
X163702857Y-45220000D01*
X163798095Y-45315238D01*
X163845714Y-45410476D01*
X163893333Y-45600952D01*
X163893333Y-45743809D01*
X163845714Y-45934285D01*
X163798095Y-46029523D01*
X163702857Y-46124761D01*
X163560000Y-46172380D01*
X163321904Y-46172380D01*
X161680000Y-94432380D02*
X161680000Y-93432380D01*
X161918095Y-93432380D01*
X162060952Y-93480000D01*
X162156190Y-93575238D01*
X162203809Y-93670476D01*
X162251428Y-93860952D01*
X162251428Y-94003809D01*
X162203809Y-94194285D01*
X162156190Y-94289523D01*
X162060952Y-94384761D01*
X161918095Y-94432380D01*
X161680000Y-94432380D01*
X162680000Y-94432380D02*
X162680000Y-93432380D01*
X163727619Y-94432380D02*
X163394285Y-93956190D01*
X163156190Y-94432380D02*
X163156190Y-93432380D01*
X163537142Y-93432380D01*
X163632380Y-93480000D01*
X163680000Y-93527619D01*
X163727619Y-93622857D01*
X163727619Y-93765714D01*
X163680000Y-93860952D01*
X163632380Y-93908571D01*
X163537142Y-93956190D01*
X163156190Y-93956190D01*
X156860952Y-46172380D02*
X156289523Y-46172380D01*
X156575238Y-46172380D02*
X156575238Y-45172380D01*
X156480000Y-45315238D01*
X156384761Y-45410476D01*
X156289523Y-45458095D01*
X157241904Y-45267619D02*
X157289523Y-45220000D01*
X157384761Y-45172380D01*
X157622857Y-45172380D01*
X157718095Y-45220000D01*
X157765714Y-45267619D01*
X157813333Y-45362857D01*
X157813333Y-45458095D01*
X157765714Y-45600952D01*
X157194285Y-46172380D01*
X157813333Y-46172380D01*
X158099047Y-45172380D02*
X158432380Y-46172380D01*
X158765714Y-45172380D01*
X154574761Y-89200952D02*
X152574761Y-89200952D01*
X154003333Y-88534285D01*
X152574761Y-87867619D01*
X154574761Y-87867619D01*
X154574761Y-86629523D02*
X154479523Y-86820000D01*
X154384285Y-86915238D01*
X154193809Y-87010476D01*
X153622380Y-87010476D01*
X153431904Y-86915238D01*
X153336666Y-86820000D01*
X153241428Y-86629523D01*
X153241428Y-86343809D01*
X153336666Y-86153333D01*
X153431904Y-86058095D01*
X153622380Y-85962857D01*
X154193809Y-85962857D01*
X154384285Y-86058095D01*
X154479523Y-86153333D01*
X154574761Y-86343809D01*
X154574761Y-86629523D01*
X153241428Y-85391428D02*
X153241428Y-84629523D01*
X152574761Y-85105714D02*
X154289047Y-85105714D01*
X154479523Y-85010476D01*
X154574761Y-84820000D01*
X154574761Y-84629523D01*
X154574761Y-83677142D02*
X154479523Y-83867619D01*
X154384285Y-83962857D01*
X154193809Y-84058095D01*
X153622380Y-84058095D01*
X153431904Y-83962857D01*
X153336666Y-83867619D01*
X153241428Y-83677142D01*
X153241428Y-83391428D01*
X153336666Y-83200952D01*
X153431904Y-83105714D01*
X153622380Y-83010476D01*
X154193809Y-83010476D01*
X154384285Y-83105714D01*
X154479523Y-83200952D01*
X154574761Y-83391428D01*
X154574761Y-83677142D01*
X154574761Y-82153333D02*
X153241428Y-82153333D01*
X153622380Y-82153333D02*
X153431904Y-82058095D01*
X153336666Y-81962857D01*
X153241428Y-81772380D01*
X153241428Y-81581904D01*
X152765238Y-79486666D02*
X152670000Y-79391428D01*
X152574761Y-79200952D01*
X152574761Y-78724761D01*
X152670000Y-78534285D01*
X152765238Y-78439047D01*
X152955714Y-78343809D01*
X153146190Y-78343809D01*
X153431904Y-78439047D01*
X154574761Y-79581904D01*
X154574761Y-78343809D01*
X184800952Y-98242380D02*
X184229523Y-98242380D01*
X184515238Y-98242380D02*
X184515238Y-97242380D01*
X184420000Y-97385238D01*
X184324761Y-97480476D01*
X184229523Y-97528095D01*
X185181904Y-97337619D02*
X185229523Y-97290000D01*
X185324761Y-97242380D01*
X185562857Y-97242380D01*
X185658095Y-97290000D01*
X185705714Y-97337619D01*
X185753333Y-97432857D01*
X185753333Y-97528095D01*
X185705714Y-97670952D01*
X185134285Y-98242380D01*
X185753333Y-98242380D01*
X186039047Y-97242380D02*
X186372380Y-98242380D01*
X186705714Y-97242380D01*
X161680000Y-71806380D02*
X161680000Y-70806380D01*
X161918095Y-70806380D01*
X162060952Y-70854000D01*
X162156190Y-70949238D01*
X162203809Y-71044476D01*
X162251428Y-71234952D01*
X162251428Y-71377809D01*
X162203809Y-71568285D01*
X162156190Y-71663523D01*
X162060952Y-71758761D01*
X161918095Y-71806380D01*
X161680000Y-71806380D01*
X162680000Y-71806380D02*
X162680000Y-70806380D01*
X163727619Y-71806380D02*
X163394285Y-71330190D01*
X163156190Y-71806380D02*
X163156190Y-70806380D01*
X163537142Y-70806380D01*
X163632380Y-70854000D01*
X163680000Y-70901619D01*
X163727619Y-70996857D01*
X163727619Y-71139714D01*
X163680000Y-71234952D01*
X163632380Y-71282571D01*
X163537142Y-71330190D01*
X163156190Y-71330190D01*
X161394285Y-79192380D02*
X161394285Y-78192380D01*
X161727619Y-78906666D01*
X162060952Y-78192380D01*
X162060952Y-79192380D01*
X162489523Y-79144761D02*
X162632380Y-79192380D01*
X162870476Y-79192380D01*
X162965714Y-79144761D01*
X163013333Y-79097142D01*
X163060952Y-79001904D01*
X163060952Y-78906666D01*
X163013333Y-78811428D01*
X162965714Y-78763809D01*
X162870476Y-78716190D01*
X162680000Y-78668571D01*
X162584761Y-78620952D01*
X162537142Y-78573333D01*
X162489523Y-78478095D01*
X162489523Y-78382857D01*
X162537142Y-78287619D01*
X162584761Y-78240000D01*
X162680000Y-78192380D01*
X162918095Y-78192380D01*
X163060952Y-78240000D01*
X164013333Y-79192380D02*
X163441904Y-79192380D01*
X163727619Y-79192380D02*
X163727619Y-78192380D01*
X163632380Y-78335238D01*
X163537142Y-78430476D01*
X163441904Y-78478095D01*
X119428571Y-60345476D02*
X119428571Y-60012142D01*
X119952380Y-59869285D02*
X119952380Y-60345476D01*
X118952380Y-60345476D01*
X118952380Y-59869285D01*
X119952380Y-58916904D02*
X119952380Y-59488333D01*
X119952380Y-59202619D02*
X118952380Y-59202619D01*
X119095238Y-59297857D01*
X119190476Y-59393095D01*
X119238095Y-59488333D01*
X161680000Y-116022380D02*
X161680000Y-115022380D01*
X161918095Y-115022380D01*
X162060952Y-115070000D01*
X162156190Y-115165238D01*
X162203809Y-115260476D01*
X162251428Y-115450952D01*
X162251428Y-115593809D01*
X162203809Y-115784285D01*
X162156190Y-115879523D01*
X162060952Y-115974761D01*
X161918095Y-116022380D01*
X161680000Y-116022380D01*
X162680000Y-116022380D02*
X162680000Y-115022380D01*
X163727619Y-116022380D02*
X163394285Y-115546190D01*
X163156190Y-116022380D02*
X163156190Y-115022380D01*
X163537142Y-115022380D01*
X163632380Y-115070000D01*
X163680000Y-115117619D01*
X163727619Y-115212857D01*
X163727619Y-115355714D01*
X163680000Y-115450952D01*
X163632380Y-115498571D01*
X163537142Y-115546190D01*
X163156190Y-115546190D01*
X131700000Y-50256904D02*
X131652380Y-50352142D01*
X131652380Y-50495000D01*
X131700000Y-50637857D01*
X131795238Y-50733095D01*
X131890476Y-50780714D01*
X132080952Y-50828333D01*
X132223809Y-50828333D01*
X132414285Y-50780714D01*
X132509523Y-50733095D01*
X132604761Y-50637857D01*
X132652380Y-50495000D01*
X132652380Y-50399761D01*
X132604761Y-50256904D01*
X132557142Y-50209285D01*
X132223809Y-50209285D01*
X132223809Y-50399761D01*
X132652380Y-49780714D02*
X131652380Y-49780714D01*
X132652380Y-49209285D01*
X131652380Y-49209285D01*
X132652380Y-48733095D02*
X131652380Y-48733095D01*
X131652380Y-48495000D01*
X131700000Y-48352142D01*
X131795238Y-48256904D01*
X131890476Y-48209285D01*
X132080952Y-48161666D01*
X132223809Y-48161666D01*
X132414285Y-48209285D01*
X132509523Y-48256904D01*
X132604761Y-48352142D01*
X132652380Y-48495000D01*
X132652380Y-48733095D01*
X161060952Y-69218761D02*
X161203809Y-69266380D01*
X161441904Y-69266380D01*
X161537142Y-69218761D01*
X161584761Y-69171142D01*
X161632380Y-69075904D01*
X161632380Y-68980666D01*
X161584761Y-68885428D01*
X161537142Y-68837809D01*
X161441904Y-68790190D01*
X161251428Y-68742571D01*
X161156190Y-68694952D01*
X161108571Y-68647333D01*
X161060952Y-68552095D01*
X161060952Y-68456857D01*
X161108571Y-68361619D01*
X161156190Y-68314000D01*
X161251428Y-68266380D01*
X161489523Y-68266380D01*
X161632380Y-68314000D01*
X161918095Y-68266380D02*
X162489523Y-68266380D01*
X162203809Y-69266380D02*
X162203809Y-68266380D01*
X162822857Y-68742571D02*
X163156190Y-68742571D01*
X163299047Y-69266380D02*
X162822857Y-69266380D01*
X162822857Y-68266380D01*
X163299047Y-68266380D01*
X163727619Y-69266380D02*
X163727619Y-68266380D01*
X164108571Y-68266380D01*
X164203809Y-68314000D01*
X164251428Y-68361619D01*
X164299047Y-68456857D01*
X164299047Y-68599714D01*
X164251428Y-68694952D01*
X164203809Y-68742571D01*
X164108571Y-68790190D01*
X163727619Y-68790190D01*
X140272380Y-60440714D02*
X139272380Y-60440714D01*
X140272380Y-59869285D01*
X139272380Y-59869285D01*
X140177142Y-58821666D02*
X140224761Y-58869285D01*
X140272380Y-59012142D01*
X140272380Y-59107380D01*
X140224761Y-59250238D01*
X140129523Y-59345476D01*
X140034285Y-59393095D01*
X139843809Y-59440714D01*
X139700952Y-59440714D01*
X139510476Y-59393095D01*
X139415238Y-59345476D01*
X139320000Y-59250238D01*
X139272380Y-59107380D01*
X139272380Y-59012142D01*
X139320000Y-58869285D01*
X139367619Y-58821666D01*
X130064761Y-50256904D02*
X130112380Y-50114047D01*
X130112380Y-49875952D01*
X130064761Y-49780714D01*
X130017142Y-49733095D01*
X129921904Y-49685476D01*
X129826666Y-49685476D01*
X129731428Y-49733095D01*
X129683809Y-49780714D01*
X129636190Y-49875952D01*
X129588571Y-50066428D01*
X129540952Y-50161666D01*
X129493333Y-50209285D01*
X129398095Y-50256904D01*
X129302857Y-50256904D01*
X129207619Y-50209285D01*
X129160000Y-50161666D01*
X129112380Y-50066428D01*
X129112380Y-49828333D01*
X129160000Y-49685476D01*
X129112380Y-49352142D02*
X129112380Y-48733095D01*
X129493333Y-49066428D01*
X129493333Y-48923571D01*
X129540952Y-48828333D01*
X129588571Y-48780714D01*
X129683809Y-48733095D01*
X129921904Y-48733095D01*
X130017142Y-48780714D01*
X130064761Y-48828333D01*
X130112380Y-48923571D01*
X130112380Y-49209285D01*
X130064761Y-49304523D01*
X130017142Y-49352142D01*
X161394285Y-81732380D02*
X161394285Y-80732380D01*
X161727619Y-81446666D01*
X162060952Y-80732380D01*
X162060952Y-81732380D01*
X162489523Y-81684761D02*
X162632380Y-81732380D01*
X162870476Y-81732380D01*
X162965714Y-81684761D01*
X163013333Y-81637142D01*
X163060952Y-81541904D01*
X163060952Y-81446666D01*
X163013333Y-81351428D01*
X162965714Y-81303809D01*
X162870476Y-81256190D01*
X162680000Y-81208571D01*
X162584761Y-81160952D01*
X162537142Y-81113333D01*
X162489523Y-81018095D01*
X162489523Y-80922857D01*
X162537142Y-80827619D01*
X162584761Y-80780000D01*
X162680000Y-80732380D01*
X162918095Y-80732380D01*
X163060952Y-80780000D01*
X163441904Y-80827619D02*
X163489523Y-80780000D01*
X163584761Y-80732380D01*
X163822857Y-80732380D01*
X163918095Y-80780000D01*
X163965714Y-80827619D01*
X164013333Y-80922857D01*
X164013333Y-81018095D01*
X163965714Y-81160952D01*
X163394285Y-81732380D01*
X164013333Y-81732380D01*
X154574761Y-109520952D02*
X152574761Y-109520952D01*
X154003333Y-108854285D01*
X152574761Y-108187619D01*
X154574761Y-108187619D01*
X154574761Y-106949523D02*
X154479523Y-107140000D01*
X154384285Y-107235238D01*
X154193809Y-107330476D01*
X153622380Y-107330476D01*
X153431904Y-107235238D01*
X153336666Y-107140000D01*
X153241428Y-106949523D01*
X153241428Y-106663809D01*
X153336666Y-106473333D01*
X153431904Y-106378095D01*
X153622380Y-106282857D01*
X154193809Y-106282857D01*
X154384285Y-106378095D01*
X154479523Y-106473333D01*
X154574761Y-106663809D01*
X154574761Y-106949523D01*
X153241428Y-105711428D02*
X153241428Y-104949523D01*
X152574761Y-105425714D02*
X154289047Y-105425714D01*
X154479523Y-105330476D01*
X154574761Y-105140000D01*
X154574761Y-104949523D01*
X154574761Y-103997142D02*
X154479523Y-104187619D01*
X154384285Y-104282857D01*
X154193809Y-104378095D01*
X153622380Y-104378095D01*
X153431904Y-104282857D01*
X153336666Y-104187619D01*
X153241428Y-103997142D01*
X153241428Y-103711428D01*
X153336666Y-103520952D01*
X153431904Y-103425714D01*
X153622380Y-103330476D01*
X154193809Y-103330476D01*
X154384285Y-103425714D01*
X154479523Y-103520952D01*
X154574761Y-103711428D01*
X154574761Y-103997142D01*
X154574761Y-102473333D02*
X153241428Y-102473333D01*
X153622380Y-102473333D02*
X153431904Y-102378095D01*
X153336666Y-102282857D01*
X153241428Y-102092380D01*
X153241428Y-101901904D01*
X154574761Y-98663809D02*
X154574761Y-99806666D01*
X154574761Y-99235238D02*
X152574761Y-99235238D01*
X152860476Y-99425714D01*
X153050952Y-99616190D01*
X153146190Y-99806666D01*
X161394285Y-103322380D02*
X161394285Y-102322380D01*
X161727619Y-103036666D01*
X162060952Y-102322380D01*
X162060952Y-103322380D01*
X162489523Y-103274761D02*
X162632380Y-103322380D01*
X162870476Y-103322380D01*
X162965714Y-103274761D01*
X163013333Y-103227142D01*
X163060952Y-103131904D01*
X163060952Y-103036666D01*
X163013333Y-102941428D01*
X162965714Y-102893809D01*
X162870476Y-102846190D01*
X162680000Y-102798571D01*
X162584761Y-102750952D01*
X162537142Y-102703333D01*
X162489523Y-102608095D01*
X162489523Y-102512857D01*
X162537142Y-102417619D01*
X162584761Y-102370000D01*
X162680000Y-102322380D01*
X162918095Y-102322380D01*
X163060952Y-102370000D01*
X163441904Y-102417619D02*
X163489523Y-102370000D01*
X163584761Y-102322380D01*
X163822857Y-102322380D01*
X163918095Y-102370000D01*
X163965714Y-102417619D01*
X164013333Y-102512857D01*
X164013333Y-102608095D01*
X163965714Y-102750952D01*
X163394285Y-103322380D01*
X164013333Y-103322380D01*
X124508571Y-60345476D02*
X124508571Y-60012142D01*
X125032380Y-59869285D02*
X125032380Y-60345476D01*
X124032380Y-60345476D01*
X124032380Y-59869285D01*
X124032380Y-59535952D02*
X124032380Y-58916904D01*
X124413333Y-59250238D01*
X124413333Y-59107380D01*
X124460952Y-59012142D01*
X124508571Y-58964523D01*
X124603809Y-58916904D01*
X124841904Y-58916904D01*
X124937142Y-58964523D01*
X124984761Y-59012142D01*
X125032380Y-59107380D01*
X125032380Y-59393095D01*
X124984761Y-59488333D01*
X124937142Y-59535952D01*
X184658095Y-77605000D02*
X184562857Y-77557380D01*
X184420000Y-77557380D01*
X184277142Y-77605000D01*
X184181904Y-77700238D01*
X184134285Y-77795476D01*
X184086666Y-77985952D01*
X184086666Y-78128809D01*
X184134285Y-78319285D01*
X184181904Y-78414523D01*
X184277142Y-78509761D01*
X184420000Y-78557380D01*
X184515238Y-78557380D01*
X184658095Y-78509761D01*
X184705714Y-78462142D01*
X184705714Y-78128809D01*
X184515238Y-78128809D01*
X185134285Y-78557380D02*
X185134285Y-77557380D01*
X185705714Y-78557380D01*
X185705714Y-77557380D01*
X186181904Y-78557380D02*
X186181904Y-77557380D01*
X186420000Y-77557380D01*
X186562857Y-77605000D01*
X186658095Y-77700238D01*
X186705714Y-77795476D01*
X186753333Y-77985952D01*
X186753333Y-78128809D01*
X186705714Y-78319285D01*
X186658095Y-78414523D01*
X186562857Y-78509761D01*
X186420000Y-78557380D01*
X186181904Y-78557380D01*
X135192380Y-60393095D02*
X134192380Y-60393095D01*
X134192380Y-60155000D01*
X134240000Y-60012142D01*
X134335238Y-59916904D01*
X134430476Y-59869285D01*
X134620952Y-59821666D01*
X134763809Y-59821666D01*
X134954285Y-59869285D01*
X135049523Y-59916904D01*
X135144761Y-60012142D01*
X135192380Y-60155000D01*
X135192380Y-60393095D01*
X134192380Y-59488333D02*
X134192380Y-58869285D01*
X134573333Y-59202619D01*
X134573333Y-59059761D01*
X134620952Y-58964523D01*
X134668571Y-58916904D01*
X134763809Y-58869285D01*
X135001904Y-58869285D01*
X135097142Y-58916904D01*
X135144761Y-58964523D01*
X135192380Y-59059761D01*
X135192380Y-59345476D01*
X135144761Y-59440714D01*
X135097142Y-59488333D01*
X185229523Y-112482380D02*
X184753333Y-112482380D01*
X184705714Y-112958571D01*
X184753333Y-112910952D01*
X184848571Y-112863333D01*
X185086666Y-112863333D01*
X185181904Y-112910952D01*
X185229523Y-112958571D01*
X185277142Y-113053809D01*
X185277142Y-113291904D01*
X185229523Y-113387142D01*
X185181904Y-113434761D01*
X185086666Y-113482380D01*
X184848571Y-113482380D01*
X184753333Y-113434761D01*
X184705714Y-113387142D01*
X185562857Y-112482380D02*
X185896190Y-113482380D01*
X186229523Y-112482380D01*
X121968571Y-60345476D02*
X121968571Y-60012142D01*
X122492380Y-59869285D02*
X122492380Y-60345476D01*
X121492380Y-60345476D01*
X121492380Y-59869285D01*
X121587619Y-59488333D02*
X121540000Y-59440714D01*
X121492380Y-59345476D01*
X121492380Y-59107380D01*
X121540000Y-59012142D01*
X121587619Y-58964523D01*
X121682857Y-58916904D01*
X121778095Y-58916904D01*
X121920952Y-58964523D01*
X122492380Y-59535952D01*
X122492380Y-58916904D01*
X127524761Y-50256904D02*
X127572380Y-50114047D01*
X127572380Y-49875952D01*
X127524761Y-49780714D01*
X127477142Y-49733095D01*
X127381904Y-49685476D01*
X127286666Y-49685476D01*
X127191428Y-49733095D01*
X127143809Y-49780714D01*
X127096190Y-49875952D01*
X127048571Y-50066428D01*
X127000952Y-50161666D01*
X126953333Y-50209285D01*
X126858095Y-50256904D01*
X126762857Y-50256904D01*
X126667619Y-50209285D01*
X126620000Y-50161666D01*
X126572380Y-50066428D01*
X126572380Y-49828333D01*
X126620000Y-49685476D01*
X126667619Y-49304523D02*
X126620000Y-49256904D01*
X126572380Y-49161666D01*
X126572380Y-48923571D01*
X126620000Y-48828333D01*
X126667619Y-48780714D01*
X126762857Y-48733095D01*
X126858095Y-48733095D01*
X127000952Y-48780714D01*
X127572380Y-49352142D01*
X127572380Y-48733095D01*
X184658095Y-92845000D02*
X184562857Y-92797380D01*
X184420000Y-92797380D01*
X184277142Y-92845000D01*
X184181904Y-92940238D01*
X184134285Y-93035476D01*
X184086666Y-93225952D01*
X184086666Y-93368809D01*
X184134285Y-93559285D01*
X184181904Y-93654523D01*
X184277142Y-93749761D01*
X184420000Y-93797380D01*
X184515238Y-93797380D01*
X184658095Y-93749761D01*
X184705714Y-93702142D01*
X184705714Y-93368809D01*
X184515238Y-93368809D01*
X185134285Y-93797380D02*
X185134285Y-92797380D01*
X185705714Y-93797380D01*
X185705714Y-92797380D01*
X186181904Y-93797380D02*
X186181904Y-92797380D01*
X186420000Y-92797380D01*
X186562857Y-92845000D01*
X186658095Y-92940238D01*
X186705714Y-93035476D01*
X186753333Y-93225952D01*
X186753333Y-93368809D01*
X186705714Y-93559285D01*
X186658095Y-93654523D01*
X186562857Y-93749761D01*
X186420000Y-93797380D01*
X186181904Y-93797380D01*
X118952380Y-49685476D02*
X118952380Y-50161666D01*
X119428571Y-50209285D01*
X119380952Y-50161666D01*
X119333333Y-50066428D01*
X119333333Y-49828333D01*
X119380952Y-49733095D01*
X119428571Y-49685476D01*
X119523809Y-49637857D01*
X119761904Y-49637857D01*
X119857142Y-49685476D01*
X119904761Y-49733095D01*
X119952380Y-49828333D01*
X119952380Y-50066428D01*
X119904761Y-50161666D01*
X119857142Y-50209285D01*
X118952380Y-49352142D02*
X119952380Y-49018809D01*
X118952380Y-48685476D01*
X184800952Y-76017380D02*
X184229523Y-76017380D01*
X184515238Y-76017380D02*
X184515238Y-75017380D01*
X184420000Y-75160238D01*
X184324761Y-75255476D01*
X184229523Y-75303095D01*
X185181904Y-75112619D02*
X185229523Y-75065000D01*
X185324761Y-75017380D01*
X185562857Y-75017380D01*
X185658095Y-75065000D01*
X185705714Y-75112619D01*
X185753333Y-75207857D01*
X185753333Y-75303095D01*
X185705714Y-75445952D01*
X185134285Y-76017380D01*
X185753333Y-76017380D01*
X186039047Y-75017380D02*
X186372380Y-76017380D01*
X186705714Y-75017380D01*
X126620000Y-60416904D02*
X126572380Y-60512142D01*
X126572380Y-60655000D01*
X126620000Y-60797857D01*
X126715238Y-60893095D01*
X126810476Y-60940714D01*
X127000952Y-60988333D01*
X127143809Y-60988333D01*
X127334285Y-60940714D01*
X127429523Y-60893095D01*
X127524761Y-60797857D01*
X127572380Y-60655000D01*
X127572380Y-60559761D01*
X127524761Y-60416904D01*
X127477142Y-60369285D01*
X127143809Y-60369285D01*
X127143809Y-60559761D01*
X127572380Y-59940714D02*
X126572380Y-59940714D01*
X127572380Y-59369285D01*
X126572380Y-59369285D01*
X127572380Y-58893095D02*
X126572380Y-58893095D01*
X126572380Y-58655000D01*
X126620000Y-58512142D01*
X126715238Y-58416904D01*
X126810476Y-58369285D01*
X127000952Y-58321666D01*
X127143809Y-58321666D01*
X127334285Y-58369285D01*
X127429523Y-58416904D01*
X127524761Y-58512142D01*
X127572380Y-58655000D01*
X127572380Y-58893095D01*
X135192380Y-50780714D02*
X134192380Y-50780714D01*
X134906666Y-50447380D01*
X134192380Y-50114047D01*
X135192380Y-50114047D01*
X135144761Y-49685476D02*
X135192380Y-49542619D01*
X135192380Y-49304523D01*
X135144761Y-49209285D01*
X135097142Y-49161666D01*
X135001904Y-49114047D01*
X134906666Y-49114047D01*
X134811428Y-49161666D01*
X134763809Y-49209285D01*
X134716190Y-49304523D01*
X134668571Y-49495000D01*
X134620952Y-49590238D01*
X134573333Y-49637857D01*
X134478095Y-49685476D01*
X134382857Y-49685476D01*
X134287619Y-49637857D01*
X134240000Y-49590238D01*
X134192380Y-49495000D01*
X134192380Y-49256904D01*
X134240000Y-49114047D01*
X135192380Y-48161666D02*
X135192380Y-48733095D01*
X135192380Y-48447380D02*
X134192380Y-48447380D01*
X134335238Y-48542619D01*
X134430476Y-48637857D01*
X134478095Y-48733095D01*
X184079523Y-90257380D02*
X183603333Y-90257380D01*
X183555714Y-90733571D01*
X183603333Y-90685952D01*
X183698571Y-90638333D01*
X183936666Y-90638333D01*
X184031904Y-90685952D01*
X184079523Y-90733571D01*
X184127142Y-90828809D01*
X184127142Y-91066904D01*
X184079523Y-91162142D01*
X184031904Y-91209761D01*
X183936666Y-91257380D01*
X183698571Y-91257380D01*
X183603333Y-91209761D01*
X183555714Y-91162142D01*
X184412857Y-90257380D02*
X184746190Y-91257380D01*
X185079523Y-90257380D01*
X161394285Y-105862380D02*
X161394285Y-104862380D01*
X161727619Y-105576666D01*
X162060952Y-104862380D01*
X162060952Y-105862380D01*
X162489523Y-105814761D02*
X162632380Y-105862380D01*
X162870476Y-105862380D01*
X162965714Y-105814761D01*
X163013333Y-105767142D01*
X163060952Y-105671904D01*
X163060952Y-105576666D01*
X163013333Y-105481428D01*
X162965714Y-105433809D01*
X162870476Y-105386190D01*
X162680000Y-105338571D01*
X162584761Y-105290952D01*
X162537142Y-105243333D01*
X162489523Y-105148095D01*
X162489523Y-105052857D01*
X162537142Y-104957619D01*
X162584761Y-104910000D01*
X162680000Y-104862380D01*
X162918095Y-104862380D01*
X163060952Y-104910000D01*
X163394285Y-104862380D02*
X164013333Y-104862380D01*
X163680000Y-105243333D01*
X163822857Y-105243333D01*
X163918095Y-105290952D01*
X163965714Y-105338571D01*
X164013333Y-105433809D01*
X164013333Y-105671904D01*
X163965714Y-105767142D01*
X163918095Y-105814761D01*
X163822857Y-105862380D01*
X163537142Y-105862380D01*
X163441904Y-105814761D01*
X163394285Y-105767142D01*
X181539523Y-45772380D02*
X181063333Y-45772380D01*
X181015714Y-46248571D01*
X181063333Y-46200952D01*
X181158571Y-46153333D01*
X181396666Y-46153333D01*
X181491904Y-46200952D01*
X181539523Y-46248571D01*
X181587142Y-46343809D01*
X181587142Y-46581904D01*
X181539523Y-46677142D01*
X181491904Y-46724761D01*
X181396666Y-46772380D01*
X181158571Y-46772380D01*
X181063333Y-46724761D01*
X181015714Y-46677142D01*
X181872857Y-45772380D02*
X182206190Y-46772380D01*
X182539523Y-45772380D01*
X184658095Y-99830000D02*
X184562857Y-99782380D01*
X184420000Y-99782380D01*
X184277142Y-99830000D01*
X184181904Y-99925238D01*
X184134285Y-100020476D01*
X184086666Y-100210952D01*
X184086666Y-100353809D01*
X184134285Y-100544285D01*
X184181904Y-100639523D01*
X184277142Y-100734761D01*
X184420000Y-100782380D01*
X184515238Y-100782380D01*
X184658095Y-100734761D01*
X184705714Y-100687142D01*
X184705714Y-100353809D01*
X184515238Y-100353809D01*
X185134285Y-100782380D02*
X185134285Y-99782380D01*
X185705714Y-100782380D01*
X185705714Y-99782380D01*
X186181904Y-100782380D02*
X186181904Y-99782380D01*
X186420000Y-99782380D01*
X186562857Y-99830000D01*
X186658095Y-99925238D01*
X186705714Y-100020476D01*
X186753333Y-100210952D01*
X186753333Y-100353809D01*
X186705714Y-100544285D01*
X186658095Y-100639523D01*
X186562857Y-100734761D01*
X186420000Y-100782380D01*
X186181904Y-100782380D01*
X180968095Y-50265000D02*
X180872857Y-50217380D01*
X180730000Y-50217380D01*
X180587142Y-50265000D01*
X180491904Y-50360238D01*
X180444285Y-50455476D01*
X180396666Y-50645952D01*
X180396666Y-50788809D01*
X180444285Y-50979285D01*
X180491904Y-51074523D01*
X180587142Y-51169761D01*
X180730000Y-51217380D01*
X180825238Y-51217380D01*
X180968095Y-51169761D01*
X181015714Y-51122142D01*
X181015714Y-50788809D01*
X180825238Y-50788809D01*
X181444285Y-51217380D02*
X181444285Y-50217380D01*
X182015714Y-51217380D01*
X182015714Y-50217380D01*
X182491904Y-51217380D02*
X182491904Y-50217380D01*
X182730000Y-50217380D01*
X182872857Y-50265000D01*
X182968095Y-50360238D01*
X183015714Y-50455476D01*
X183063333Y-50645952D01*
X183063333Y-50788809D01*
X183015714Y-50979285D01*
X182968095Y-51074523D01*
X182872857Y-51169761D01*
X182730000Y-51217380D01*
X182491904Y-51217380D01*
X161941904Y-97718571D02*
X162275238Y-97718571D01*
X162418095Y-98242380D02*
X161941904Y-98242380D01*
X161941904Y-97242380D01*
X162418095Y-97242380D01*
X162846666Y-98242380D02*
X162846666Y-97242380D01*
X163418095Y-98242380D01*
X163418095Y-97242380D01*
X161394285Y-84272380D02*
X161394285Y-83272380D01*
X161727619Y-83986666D01*
X162060952Y-83272380D01*
X162060952Y-84272380D01*
X162489523Y-84224761D02*
X162632380Y-84272380D01*
X162870476Y-84272380D01*
X162965714Y-84224761D01*
X163013333Y-84177142D01*
X163060952Y-84081904D01*
X163060952Y-83986666D01*
X163013333Y-83891428D01*
X162965714Y-83843809D01*
X162870476Y-83796190D01*
X162680000Y-83748571D01*
X162584761Y-83700952D01*
X162537142Y-83653333D01*
X162489523Y-83558095D01*
X162489523Y-83462857D01*
X162537142Y-83367619D01*
X162584761Y-83320000D01*
X162680000Y-83272380D01*
X162918095Y-83272380D01*
X163060952Y-83320000D01*
X163394285Y-83272380D02*
X164013333Y-83272380D01*
X163680000Y-83653333D01*
X163822857Y-83653333D01*
X163918095Y-83700952D01*
X163965714Y-83748571D01*
X164013333Y-83843809D01*
X164013333Y-84081904D01*
X163965714Y-84177142D01*
X163918095Y-84224761D01*
X163822857Y-84272380D01*
X163537142Y-84272380D01*
X163441904Y-84224761D01*
X163394285Y-84177142D01*
X184143095Y-70585000D02*
X184047857Y-70537380D01*
X183905000Y-70537380D01*
X183762142Y-70585000D01*
X183666904Y-70680238D01*
X183619285Y-70775476D01*
X183571666Y-70965952D01*
X183571666Y-71108809D01*
X183619285Y-71299285D01*
X183666904Y-71394523D01*
X183762142Y-71489761D01*
X183905000Y-71537380D01*
X184000238Y-71537380D01*
X184143095Y-71489761D01*
X184190714Y-71442142D01*
X184190714Y-71108809D01*
X184000238Y-71108809D01*
X184619285Y-71537380D02*
X184619285Y-70537380D01*
X185190714Y-71537380D01*
X185190714Y-70537380D01*
X185666904Y-71537380D02*
X185666904Y-70537380D01*
X185905000Y-70537380D01*
X186047857Y-70585000D01*
X186143095Y-70680238D01*
X186190714Y-70775476D01*
X186238333Y-70965952D01*
X186238333Y-71108809D01*
X186190714Y-71299285D01*
X186143095Y-71394523D01*
X186047857Y-71489761D01*
X185905000Y-71537380D01*
X185666904Y-71537380D01*
X137732380Y-50780714D02*
X136732380Y-50780714D01*
X137446666Y-50447380D01*
X136732380Y-50114047D01*
X137732380Y-50114047D01*
X137684761Y-49685476D02*
X137732380Y-49542619D01*
X137732380Y-49304523D01*
X137684761Y-49209285D01*
X137637142Y-49161666D01*
X137541904Y-49114047D01*
X137446666Y-49114047D01*
X137351428Y-49161666D01*
X137303809Y-49209285D01*
X137256190Y-49304523D01*
X137208571Y-49495000D01*
X137160952Y-49590238D01*
X137113333Y-49637857D01*
X137018095Y-49685476D01*
X136922857Y-49685476D01*
X136827619Y-49637857D01*
X136780000Y-49590238D01*
X136732380Y-49495000D01*
X136732380Y-49256904D01*
X136780000Y-49114047D01*
X136827619Y-48733095D02*
X136780000Y-48685476D01*
X136732380Y-48590238D01*
X136732380Y-48352142D01*
X136780000Y-48256904D01*
X136827619Y-48209285D01*
X136922857Y-48161666D01*
X137018095Y-48161666D01*
X137160952Y-48209285D01*
X137732380Y-48780714D01*
X137732380Y-48161666D01*
X137732380Y-60440714D02*
X136732380Y-60440714D01*
X137732380Y-59869285D01*
X136732380Y-59869285D01*
X137637142Y-58821666D02*
X137684761Y-58869285D01*
X137732380Y-59012142D01*
X137732380Y-59107380D01*
X137684761Y-59250238D01*
X137589523Y-59345476D01*
X137494285Y-59393095D01*
X137303809Y-59440714D01*
X137160952Y-59440714D01*
X136970476Y-59393095D01*
X136875238Y-59345476D01*
X136780000Y-59250238D01*
X136732380Y-59107380D01*
X136732380Y-59012142D01*
X136780000Y-58869285D01*
X136827619Y-58821666D01*
X183823095Y-55345000D02*
X183727857Y-55297380D01*
X183585000Y-55297380D01*
X183442142Y-55345000D01*
X183346904Y-55440238D01*
X183299285Y-55535476D01*
X183251666Y-55725952D01*
X183251666Y-55868809D01*
X183299285Y-56059285D01*
X183346904Y-56154523D01*
X183442142Y-56249761D01*
X183585000Y-56297380D01*
X183680238Y-56297380D01*
X183823095Y-56249761D01*
X183870714Y-56202142D01*
X183870714Y-55868809D01*
X183680238Y-55868809D01*
X184299285Y-56297380D02*
X184299285Y-55297380D01*
X184870714Y-56297380D01*
X184870714Y-55297380D01*
X185346904Y-56297380D02*
X185346904Y-55297380D01*
X185585000Y-55297380D01*
X185727857Y-55345000D01*
X185823095Y-55440238D01*
X185870714Y-55535476D01*
X185918333Y-55725952D01*
X185918333Y-55868809D01*
X185870714Y-56059285D01*
X185823095Y-56154523D01*
X185727857Y-56249761D01*
X185585000Y-56297380D01*
X185346904Y-56297380D01*
X154574761Y-67610952D02*
X152574761Y-67610952D01*
X154003333Y-66944285D01*
X152574761Y-66277619D01*
X154574761Y-66277619D01*
X154574761Y-65039523D02*
X154479523Y-65230000D01*
X154384285Y-65325238D01*
X154193809Y-65420476D01*
X153622380Y-65420476D01*
X153431904Y-65325238D01*
X153336666Y-65230000D01*
X153241428Y-65039523D01*
X153241428Y-64753809D01*
X153336666Y-64563333D01*
X153431904Y-64468095D01*
X153622380Y-64372857D01*
X154193809Y-64372857D01*
X154384285Y-64468095D01*
X154479523Y-64563333D01*
X154574761Y-64753809D01*
X154574761Y-65039523D01*
X153241428Y-63801428D02*
X153241428Y-63039523D01*
X152574761Y-63515714D02*
X154289047Y-63515714D01*
X154479523Y-63420476D01*
X154574761Y-63230000D01*
X154574761Y-63039523D01*
X154574761Y-62087142D02*
X154479523Y-62277619D01*
X154384285Y-62372857D01*
X154193809Y-62468095D01*
X153622380Y-62468095D01*
X153431904Y-62372857D01*
X153336666Y-62277619D01*
X153241428Y-62087142D01*
X153241428Y-61801428D01*
X153336666Y-61610952D01*
X153431904Y-61515714D01*
X153622380Y-61420476D01*
X154193809Y-61420476D01*
X154384285Y-61515714D01*
X154479523Y-61610952D01*
X154574761Y-61801428D01*
X154574761Y-62087142D01*
X154574761Y-60563333D02*
X153241428Y-60563333D01*
X153622380Y-60563333D02*
X153431904Y-60468095D01*
X153336666Y-60372857D01*
X153241428Y-60182380D01*
X153241428Y-59991904D01*
X152574761Y-57991904D02*
X152574761Y-56753809D01*
X153336666Y-57420476D01*
X153336666Y-57134761D01*
X153431904Y-56944285D01*
X153527142Y-56849047D01*
X153717619Y-56753809D01*
X154193809Y-56753809D01*
X154384285Y-56849047D01*
X154479523Y-56944285D01*
X154574761Y-57134761D01*
X154574761Y-57706190D01*
X154479523Y-57896666D01*
X154384285Y-57991904D01*
X142812380Y-50780714D02*
X141812380Y-50780714D01*
X142526666Y-50447380D01*
X141812380Y-50114047D01*
X142812380Y-50114047D01*
X142764761Y-49685476D02*
X142812380Y-49542619D01*
X142812380Y-49304523D01*
X142764761Y-49209285D01*
X142717142Y-49161666D01*
X142621904Y-49114047D01*
X142526666Y-49114047D01*
X142431428Y-49161666D01*
X142383809Y-49209285D01*
X142336190Y-49304523D01*
X142288571Y-49495000D01*
X142240952Y-49590238D01*
X142193333Y-49637857D01*
X142098095Y-49685476D01*
X142002857Y-49685476D01*
X141907619Y-49637857D01*
X141860000Y-49590238D01*
X141812380Y-49495000D01*
X141812380Y-49256904D01*
X141860000Y-49114047D01*
X141812380Y-48780714D02*
X141812380Y-48161666D01*
X142193333Y-48495000D01*
X142193333Y-48352142D01*
X142240952Y-48256904D01*
X142288571Y-48209285D01*
X142383809Y-48161666D01*
X142621904Y-48161666D01*
X142717142Y-48209285D01*
X142764761Y-48256904D01*
X142812380Y-48352142D01*
X142812380Y-48637857D01*
X142764761Y-48733095D01*
X142717142Y-48780714D01*
M02*
