%TF.GenerationSoftware,KiCad,Pcbnew,6.0.11+dfsg-1*%
%TF.CreationDate,2023-07-27T12:15:27+02:00*%
%TF.ProjectId,CartesianRobotElectricalDocs,43617274-6573-4696-916e-526f626f7445,rev?*%
%TF.SameCoordinates,Original*%
%TF.FileFunction,Copper,L1,Top*%
%TF.FilePolarity,Positive*%
%FSLAX46Y46*%
G04 Gerber Fmt 4.6, Leading zero omitted, Abs format (unit mm)*
G04 Created by KiCad (PCBNEW 6.0.11+dfsg-1) date 2023-07-27 12:15:27*
%MOMM*%
%LPD*%
G01*
G04 APERTURE LIST*
%TA.AperFunction,ComponentPad*%
%ADD10R,1.700000X1.700000*%
%TD*%
%TA.AperFunction,ComponentPad*%
%ADD11O,1.700000X1.700000*%
%TD*%
%TA.AperFunction,ComponentPad*%
%ADD12C,7.500000*%
%TD*%
%TA.AperFunction,ComponentPad*%
%ADD13C,1.600000*%
%TD*%
%TA.AperFunction,ComponentPad*%
%ADD14O,1.600000X1.600000*%
%TD*%
%TA.AperFunction,ComponentPad*%
%ADD15C,2.600000*%
%TD*%
%TA.AperFunction,ComponentPad*%
%ADD16R,2.600000X2.600000*%
%TD*%
%TA.AperFunction,ComponentPad*%
%ADD17R,1.600000X1.600000*%
%TD*%
%TA.AperFunction,ComponentPad*%
%ADD18C,3.800000*%
%TD*%
%TA.AperFunction,ComponentPad*%
%ADD19R,3.800000X3.800000*%
%TD*%
%TA.AperFunction,ViaPad*%
%ADD20C,0.800000*%
%TD*%
%TA.AperFunction,Conductor*%
%ADD21C,1.000000*%
%TD*%
%TA.AperFunction,Conductor*%
%ADD22C,0.500000*%
%TD*%
G04 APERTURE END LIST*
D10*
%TO.P,REF\u002A\u002A,1*%
%TO.N,N/C*%
X181610000Y-115555000D03*
D11*
%TO.P,REF\u002A\u002A,2*%
X181610000Y-113015000D03*
%TO.P,REF\u002A\u002A,3*%
X181610000Y-110475000D03*
%TO.P,REF\u002A\u002A,4*%
X181610000Y-107935000D03*
%TO.P,REF\u002A\u002A,5*%
X181610000Y-105395000D03*
%TO.P,REF\u002A\u002A,6*%
X181610000Y-102855000D03*
%TO.P,REF\u002A\u002A,7*%
X181610000Y-100315000D03*
%TO.P,REF\u002A\u002A,8*%
X181610000Y-97775000D03*
%TD*%
D12*
%TO.P,REF\u002A\u002A,1*%
%TO.N,N/C*%
X111760000Y-41170000D03*
%TD*%
D13*
%TO.P,C6,2*%
%TO.N,N/C*%
X113985000Y-101640000D03*
%TO.P,C6,1*%
X113985000Y-106640000D03*
%TD*%
D10*
%TO.P,A4988,1*%
%TO.N,N/C*%
X167640000Y-71100000D03*
D11*
%TO.P,A4988,2*%
X167640000Y-68560000D03*
%TO.P,A4988,3*%
X167640000Y-66020000D03*
%TO.P,A4988,4*%
X167640000Y-63480000D03*
%TO.P,A4988,5*%
X167640000Y-60940000D03*
%TO.P,A4988,6*%
X167640000Y-58400000D03*
%TO.P,A4988,7*%
X167640000Y-55860000D03*
%TO.P,A4988,8*%
X167640000Y-53320000D03*
%TD*%
D14*
%TO.P,R1,2*%
%TO.N,N/C*%
X109220000Y-96480000D03*
D13*
%TO.P,R1,1*%
X109220000Y-106640000D03*
%TD*%
%TO.P,C4,2*%
%TO.N,N/C*%
X133985000Y-101640000D03*
%TO.P,C4,1*%
X133985000Y-106640000D03*
%TD*%
D15*
%TO.P,M2,4*%
%TO.N,N/C*%
X194310000Y-92049600D03*
%TO.P,M2,3*%
X194310000Y-86969600D03*
%TO.P,M2,2*%
X194310000Y-81889600D03*
D16*
%TO.P,M2,1*%
X194310000Y-76809600D03*
%TD*%
D14*
%TO.P,R3,2*%
%TO.N,N/C*%
X128985000Y-96480000D03*
D13*
%TO.P,R3,1*%
X128985000Y-106640000D03*
%TD*%
D16*
%TO.P,REF\u002A\u002A,1*%
%TO.N,N/C*%
X157475000Y-39675000D03*
D15*
%TO.P,REF\u002A\u002A,2*%
X162555000Y-39675000D03*
%TD*%
D17*
%TO.P,C1,1*%
%TO.N,N/C*%
X169647349Y-43180000D03*
D13*
%TO.P,C1,2*%
X173447349Y-43180000D03*
%TD*%
D18*
%TO.P,SW 3,2*%
%TO.N,N/C*%
X128905000Y-75645000D03*
D19*
%TO.P,SW 3,1*%
X128905000Y-80645000D03*
%TD*%
D12*
%TO.P,REF\u002A\u002A,1*%
%TO.N,N/C*%
X194032000Y-41086000D03*
%TD*%
D19*
%TO.P,SW 2,1*%
%TO.N,N/C*%
X118745000Y-80645000D03*
D18*
%TO.P,SW 2,2*%
X118745000Y-75645000D03*
%TD*%
D11*
%TO.P,A4988,8*%
%TO.N,N/C*%
X167640000Y-75539600D03*
%TO.P,A4988,7*%
X167640000Y-78079600D03*
%TO.P,A4988,6*%
X167640000Y-80619600D03*
%TO.P,A4988,5*%
X167640000Y-83159600D03*
%TO.P,A4988,4*%
X167640000Y-85699600D03*
%TO.P,A4988,3*%
X167640000Y-88239600D03*
%TO.P,A4988,2*%
X167640000Y-90779600D03*
D10*
%TO.P,A4988,1*%
X167640000Y-93319600D03*
%TD*%
D14*
%TO.P,R2,2*%
%TO.N,N/C*%
X118985000Y-96480000D03*
D13*
%TO.P,R2,1*%
X118985000Y-106640000D03*
%TD*%
D16*
%TO.P,M3,1*%
%TO.N,N/C*%
X194310000Y-54575000D03*
D15*
%TO.P,M3,2*%
X194310000Y-59655000D03*
%TO.P,M3,3*%
X194310000Y-64735000D03*
%TO.P,M3,4*%
X194310000Y-69815000D03*
%TD*%
D10*
%TO.P,REF\u002A\u002A,1*%
%TO.N,N/C*%
X119500000Y-55845000D03*
D11*
%TO.P,REF\u002A\u002A,2*%
X119500000Y-53305000D03*
%TO.P,REF\u002A\u002A,3*%
X122040000Y-55845000D03*
%TO.P,REF\u002A\u002A,4*%
X122040000Y-53305000D03*
%TO.P,REF\u002A\u002A,5*%
X124580000Y-55845000D03*
%TO.P,REF\u002A\u002A,6*%
X124580000Y-53305000D03*
%TO.P,REF\u002A\u002A,7*%
X127120000Y-55845000D03*
%TO.P,REF\u002A\u002A,8*%
X127120000Y-53305000D03*
%TO.P,REF\u002A\u002A,9*%
X129660000Y-55845000D03*
%TO.P,REF\u002A\u002A,10*%
X129660000Y-53305000D03*
%TO.P,REF\u002A\u002A,11*%
X132200000Y-55845000D03*
%TO.P,REF\u002A\u002A,12*%
X132200000Y-53305000D03*
%TO.P,REF\u002A\u002A,13*%
X134740000Y-55845000D03*
%TO.P,REF\u002A\u002A,14*%
X134740000Y-53305000D03*
%TO.P,REF\u002A\u002A,15*%
X137280000Y-55845000D03*
%TO.P,REF\u002A\u002A,16*%
X137280000Y-53305000D03*
%TO.P,REF\u002A\u002A,17*%
X139820000Y-55845000D03*
%TO.P,REF\u002A\u002A,18*%
X139820000Y-53305000D03*
%TO.P,REF\u002A\u002A,19*%
X142360000Y-55845000D03*
%TO.P,REF\u002A\u002A,20*%
X142360000Y-53305000D03*
%TD*%
D12*
%TO.P,REF\u002A\u002A,1*%
%TO.N,N/C*%
X194032000Y-122966699D03*
%TD*%
D10*
%TO.P,REF\u002A\u002A,1*%
%TO.N,N/C*%
X181610000Y-93319600D03*
D11*
%TO.P,REF\u002A\u002A,2*%
X181610000Y-90779600D03*
%TO.P,REF\u002A\u002A,3*%
X181610000Y-88239600D03*
%TO.P,REF\u002A\u002A,4*%
X181610000Y-85699600D03*
%TO.P,REF\u002A\u002A,5*%
X181610000Y-83159600D03*
%TO.P,REF\u002A\u002A,6*%
X181610000Y-80619600D03*
%TO.P,REF\u002A\u002A,7*%
X181610000Y-78079600D03*
%TO.P,REF\u002A\u002A,8*%
X181610000Y-75539600D03*
%TD*%
D13*
%TO.P,C5,2*%
%TO.N,N/C*%
X123985000Y-101640000D03*
%TO.P,C5,1*%
X123985000Y-106640000D03*
%TD*%
D12*
%TO.P,REF\u002A\u002A,1*%
%TO.N,N/C*%
X111760000Y-123050699D03*
%TD*%
D10*
%TO.P,A4988,1*%
%TO.N,N/C*%
X167792400Y-115570000D03*
D11*
%TO.P,A4988,2*%
X167792400Y-113030000D03*
%TO.P,A4988,3*%
X167792400Y-110490000D03*
%TO.P,A4988,4*%
X167792400Y-107950000D03*
%TO.P,A4988,5*%
X167792400Y-105410000D03*
%TO.P,A4988,6*%
X167792400Y-102870000D03*
%TO.P,A4988,7*%
X167792400Y-100330000D03*
%TO.P,A4988,8*%
X167792400Y-97790000D03*
%TD*%
D10*
%TO.P,REF\u002A\u002A,1*%
%TO.N,N/C*%
X181610000Y-71100000D03*
D11*
%TO.P,REF\u002A\u002A,2*%
X181610000Y-68560000D03*
%TO.P,REF\u002A\u002A,3*%
X181610000Y-66020000D03*
%TO.P,REF\u002A\u002A,4*%
X181610000Y-63480000D03*
%TO.P,REF\u002A\u002A,5*%
X181610000Y-60940000D03*
%TO.P,REF\u002A\u002A,6*%
X181610000Y-58400000D03*
%TO.P,REF\u002A\u002A,7*%
X181610000Y-55860000D03*
%TO.P,REF\u002A\u002A,8*%
X181610000Y-53320000D03*
%TD*%
D16*
%TO.P,M1,1*%
%TO.N,N/C*%
X194310000Y-99060000D03*
D15*
%TO.P,M1,2*%
X194310000Y-104140000D03*
%TO.P,M1,3*%
X194310000Y-109220000D03*
%TO.P,M1,4*%
X194310000Y-114300000D03*
%TD*%
D18*
%TO.P,SW 1,2*%
%TO.N,N/C*%
X108585000Y-75645000D03*
D19*
%TO.P,SW 1,1*%
X108585000Y-80645000D03*
%TD*%
D20*
%TO.N,*%
X186175000Y-68545000D03*
X151130000Y-90170000D03*
X155600400Y-90779600D03*
X156870400Y-93319600D03*
X156330000Y-55845000D03*
X186175000Y-113030000D03*
X146170000Y-104140000D03*
X148710000Y-78620000D03*
X186175000Y-90685000D03*
X148710000Y-55845000D03*
X148710000Y-100330000D03*
X148590000Y-102870000D03*
X146170000Y-83820000D03*
X156330000Y-58385000D03*
X156210000Y-81280000D03*
X156210000Y-78740000D03*
X147440000Y-58385000D03*
X149980000Y-66005000D03*
X156330000Y-60925000D03*
X156210000Y-83820000D03*
X147440000Y-81280000D03*
X156330000Y-68545000D03*
X146170000Y-60925000D03*
X156330000Y-71085000D03*
X175380000Y-50800000D03*
%TD*%
D21*
%TO.N,*%
X175380000Y-50800000D02*
X175380000Y-45112651D01*
X175380000Y-45112651D02*
X173447349Y-43180000D01*
X169647349Y-43180000D02*
X171450000Y-44982651D01*
X171450000Y-44982651D02*
X171450000Y-52070000D01*
X173447349Y-43180000D02*
X173447349Y-41367349D01*
X173447349Y-41367349D02*
X171755000Y-39675000D01*
X171755000Y-39675000D02*
X162555000Y-39675000D01*
X158750000Y-43180000D02*
X157475000Y-41905000D01*
X169647349Y-43180000D02*
X158750000Y-43180000D01*
D22*
X186175000Y-68545000D02*
X181625000Y-68545000D01*
X181625000Y-68545000D02*
X181610000Y-68560000D01*
D21*
X181610000Y-75539600D02*
X172059600Y-75539600D01*
X172059600Y-75539600D02*
X171450000Y-74930000D01*
X171450000Y-52070000D02*
X171450000Y-53340000D01*
X181610000Y-53320000D02*
X172700000Y-53320000D01*
X172700000Y-53320000D02*
X171450000Y-52070000D01*
D22*
X156870400Y-93319600D02*
X147929600Y-93319600D01*
X147929600Y-93319600D02*
X144780000Y-90170000D01*
X144780000Y-90170000D02*
X144780000Y-71120000D01*
X144780000Y-71120000D02*
X132200000Y-58540000D01*
X132200000Y-58540000D02*
X132200000Y-55845000D01*
X155600400Y-90779600D02*
X151739600Y-90779600D01*
X151739600Y-90779600D02*
X151130000Y-90170000D01*
D21*
X190515000Y-66020000D02*
X181610000Y-66020000D01*
X193055000Y-63480000D02*
X181610000Y-63480000D01*
X193025000Y-60940000D02*
X181610000Y-60940000D01*
X181610000Y-58400000D02*
X190485000Y-58400000D01*
D22*
X161410000Y-53305000D02*
X161425000Y-53320000D01*
X161425000Y-53320000D02*
X167640000Y-53320000D01*
X131445000Y-89535000D02*
X116205000Y-89535000D01*
X109220000Y-96480000D02*
X116165000Y-89535000D01*
X116165000Y-89535000D02*
X116205000Y-89535000D01*
X167640000Y-75539600D02*
X159545400Y-75539600D01*
X159545400Y-75539600D02*
X158885000Y-76200000D01*
X186175000Y-90685000D02*
X181704600Y-90685000D01*
X181704600Y-90685000D02*
X181610000Y-90779600D01*
D21*
X181610000Y-88239600D02*
X190500000Y-88239600D01*
X190500000Y-88239600D02*
X194310000Y-92049600D01*
X181610000Y-85699600D02*
X193040000Y-85699600D01*
X181610000Y-83159600D02*
X193040000Y-83159600D01*
X181610000Y-80619600D02*
X190500000Y-80619600D01*
X194310000Y-114300000D02*
X190485000Y-110475000D01*
D22*
X186175000Y-113030000D02*
X181625000Y-113030000D01*
X181625000Y-113030000D02*
X181610000Y-113015000D01*
D21*
X181610000Y-110475000D02*
X190485000Y-110475000D01*
X181610000Y-107935000D02*
X193025000Y-107935000D01*
X193025000Y-107935000D02*
X194310000Y-109220000D01*
X181610000Y-105395000D02*
X193055000Y-105395000D01*
X193055000Y-105395000D02*
X194310000Y-104140000D01*
X181610000Y-102855000D02*
X184165000Y-102855000D01*
X184165000Y-102855000D02*
X187960000Y-99060000D01*
X187960000Y-99060000D02*
X194310000Y-99060000D01*
X193040000Y-85699600D02*
X194310000Y-86969600D01*
X193040000Y-83159600D02*
X194310000Y-81889600D01*
X190500000Y-80619600D02*
X194310000Y-76809600D01*
X190515000Y-66020000D02*
X194310000Y-69815000D01*
X193055000Y-63480000D02*
X194310000Y-64735000D01*
X193025000Y-60940000D02*
X194310000Y-59655000D01*
X190485000Y-58400000D02*
X194310000Y-54575000D01*
X171450000Y-53340000D02*
X171450000Y-74930000D01*
X171450000Y-74930000D02*
X171450000Y-95250000D01*
X171450000Y-95250000D02*
X173990000Y-97790000D01*
X173990000Y-97790000D02*
X180710600Y-97790000D01*
X180710600Y-97790000D02*
X180746400Y-97825800D01*
D22*
X119500000Y-53305000D02*
X116840000Y-55965000D01*
X116840000Y-55965000D02*
X116840000Y-57785000D01*
X116840000Y-57785000D02*
X128905000Y-69850000D01*
X128905000Y-69850000D02*
X128905000Y-75645000D01*
X158885000Y-86310000D02*
X158885000Y-76200000D01*
X158870000Y-86325000D02*
X158885000Y-86310000D01*
D21*
X157475000Y-41905000D02*
X157475000Y-39675000D01*
D22*
X158870000Y-86325000D02*
X158870000Y-96640000D01*
X158870000Y-96640000D02*
X160020000Y-97790000D01*
X160020000Y-97790000D02*
X167640000Y-97790000D01*
X167640000Y-115570000D02*
X147320000Y-115570000D01*
X147320000Y-115570000D02*
X142875000Y-111125000D01*
X142875000Y-111125000D02*
X142875000Y-71755000D01*
X142875000Y-71755000D02*
X129660000Y-58540000D01*
X129660000Y-58540000D02*
X129660000Y-55845000D01*
X146170000Y-104140000D02*
X147440000Y-105410000D01*
X147440000Y-105410000D02*
X167640000Y-105410000D01*
X148590000Y-102870000D02*
X167640000Y-102870000D01*
X148710000Y-100330000D02*
X167640000Y-100330000D01*
X156210000Y-78740000D02*
X148830000Y-78740000D01*
X148830000Y-78740000D02*
X148710000Y-78620000D01*
X156210000Y-83820000D02*
X146170000Y-83820000D01*
X147440000Y-81280000D02*
X156210000Y-81280000D01*
X122040000Y-55845000D02*
X122040000Y-58540000D01*
X122040000Y-58540000D02*
X137160000Y-73660000D01*
X137160000Y-73660000D02*
X137160000Y-86360000D01*
X137160000Y-86360000D02*
X132080000Y-91440000D01*
X132080000Y-91440000D02*
X124025000Y-91440000D01*
X124025000Y-91440000D02*
X118985000Y-96480000D01*
X131406000Y-106640000D02*
X137120000Y-106640000D01*
X127120000Y-55845000D02*
X127120000Y-58780000D01*
X127120000Y-58780000D02*
X140970000Y-72630000D01*
X140970000Y-72630000D02*
X140970000Y-102790000D01*
X140970000Y-102790000D02*
X137120000Y-106640000D01*
X119500000Y-55845000D02*
X119500000Y-58540000D01*
X119500000Y-58540000D02*
X135255000Y-74295000D01*
X135255000Y-74295000D02*
X135255000Y-85725000D01*
X135255000Y-85725000D02*
X131445000Y-89535000D01*
X124580000Y-55845000D02*
X124580000Y-58540000D01*
X124580000Y-58540000D02*
X139065000Y-73025000D01*
X139065000Y-73025000D02*
X139065000Y-86360000D01*
X139065000Y-86360000D02*
X128985000Y-96440000D01*
X128985000Y-96440000D02*
X128985000Y-96480000D01*
X119850000Y-75645000D02*
X111760000Y-75645000D01*
X156330000Y-71085000D02*
X147285000Y-71085000D01*
X147285000Y-71085000D02*
X134740000Y-58540000D01*
X134740000Y-58540000D02*
X134740000Y-55845000D01*
X156330000Y-55845000D02*
X148710000Y-55845000D01*
X158870000Y-57115000D02*
X158870000Y-86325000D01*
X156330000Y-68545000D02*
X152520000Y-68545000D01*
X142360000Y-55845000D02*
X143630000Y-57115000D01*
X158870000Y-55845000D02*
X158870000Y-57115000D01*
X152520000Y-68545000D02*
X149980000Y-66005000D01*
X156330000Y-58385000D02*
X147440000Y-58385000D01*
X156330000Y-60925000D02*
X146170000Y-60925000D01*
X128740000Y-75810000D02*
X108750000Y-75810000D01*
X143630000Y-57115000D02*
X158870000Y-57115000D01*
X108750000Y-75810000D02*
X108585000Y-75645000D01*
X128905000Y-75645000D02*
X128740000Y-75810000D01*
X133985000Y-106640000D02*
X108985000Y-106640000D01*
X161410000Y-53305000D02*
X158870000Y-55845000D01*
%TD*%
M02*
