%TF.GenerationSoftware,KiCad,Pcbnew,6.0.11+dfsg-1*%
%TF.CreationDate,2023-07-27T12:15:34+02:00*%
%TF.ProjectId,CartesianRobotElectricalDocs,43617274-6573-4696-916e-526f626f7445,rev?*%
%TF.SameCoordinates,Original*%
%TF.FileFunction,Drillmap*%
%TF.FilePolarity,Positive*%
%FSLAX45Y45*%
G04 Gerber Fmt 4.5, Leading zero omitted, Abs format (unit mm)*
G04 Created by KiCad (PCBNEW 6.0.11+dfsg-1) date 2023-07-27 12:15:34*
%MOMM*%
%LPD*%
G01*
G04 APERTURE LIST*
%ADD10C,0.100000*%
%ADD11C,0.200000*%
G04 APERTURE END LIST*
D10*
X11176000Y-3367000D02*
X19403200Y-3358600D01*
X10426000Y-12305070D02*
G75*
G03*
X11176000Y-13055070I750000J0D01*
G01*
X11176000Y-3367000D02*
G75*
G03*
X10426000Y-4117000I0J-750000D01*
G01*
X20153200Y-4108600D02*
X20153200Y-12296670D01*
X10426000Y-12305070D02*
X10426000Y-4117000D01*
X19657200Y-13046670D02*
X11176000Y-13055070D01*
X19403200Y-13046670D02*
G75*
G03*
X20153200Y-12296670I0J750000D01*
G01*
X20153200Y-4108600D02*
G75*
G03*
X19403200Y-3358600I-750000J0D01*
G01*
D11*
X10678619Y-13370546D02*
X10678619Y-13170546D01*
X10726238Y-13170546D01*
X10754810Y-13180070D01*
X10773857Y-13199117D01*
X10783381Y-13218165D01*
X10792905Y-13256260D01*
X10792905Y-13284832D01*
X10783381Y-13322927D01*
X10773857Y-13341975D01*
X10754810Y-13361022D01*
X10726238Y-13370546D01*
X10678619Y-13370546D01*
X10878619Y-13370546D02*
X10878619Y-13237213D01*
X10878619Y-13275308D02*
X10888143Y-13256260D01*
X10897667Y-13246736D01*
X10916714Y-13237213D01*
X10935762Y-13237213D01*
X11002429Y-13370546D02*
X11002429Y-13237213D01*
X11002429Y-13170546D02*
X10992905Y-13180070D01*
X11002429Y-13189594D01*
X11011952Y-13180070D01*
X11002429Y-13170546D01*
X11002429Y-13189594D01*
X11126238Y-13370546D02*
X11107190Y-13361022D01*
X11097667Y-13341975D01*
X11097667Y-13170546D01*
X11231000Y-13370546D02*
X11211952Y-13361022D01*
X11202428Y-13341975D01*
X11202428Y-13170546D01*
X11459571Y-13370546D02*
X11459571Y-13170546D01*
X11526238Y-13313403D01*
X11592905Y-13170546D01*
X11592905Y-13370546D01*
X11773857Y-13370546D02*
X11773857Y-13265784D01*
X11764333Y-13246736D01*
X11745286Y-13237213D01*
X11707190Y-13237213D01*
X11688143Y-13246736D01*
X11773857Y-13361022D02*
X11754809Y-13370546D01*
X11707190Y-13370546D01*
X11688143Y-13361022D01*
X11678619Y-13341975D01*
X11678619Y-13322927D01*
X11688143Y-13303879D01*
X11707190Y-13294356D01*
X11754809Y-13294356D01*
X11773857Y-13284832D01*
X11869095Y-13237213D02*
X11869095Y-13437213D01*
X11869095Y-13246736D02*
X11888143Y-13237213D01*
X11926238Y-13237213D01*
X11945286Y-13246736D01*
X11954809Y-13256260D01*
X11964333Y-13275308D01*
X11964333Y-13332451D01*
X11954809Y-13351498D01*
X11945286Y-13361022D01*
X11926238Y-13370546D01*
X11888143Y-13370546D01*
X11869095Y-13361022D01*
X12050048Y-13351498D02*
X12059571Y-13361022D01*
X12050048Y-13370546D01*
X12040524Y-13361022D01*
X12050048Y-13351498D01*
X12050048Y-13370546D01*
X12050048Y-13246736D02*
X12059571Y-13256260D01*
X12050048Y-13265784D01*
X12040524Y-13256260D01*
X12050048Y-13246736D01*
X12050048Y-13265784D01*
M02*
