M48
; DRILL file {KiCad 6.0.11+dfsg-1} date czw, 27 lip 2023, 12:15:32
; FORMAT={-:-/ absolute / metric / decimal}
; #@! TF.CreationDate,2023-07-27T12:15:32+02:00
; #@! TF.GenerationSoftware,Kicad,Pcbnew,6.0.11+dfsg-1
; #@! TF.FileFunction,Plated,1,2,PTH
FMAT,2
METRIC
; #@! TA.AperFunction,Plated,PTH,ViaDrill
T1C0.400
; #@! TA.AperFunction,Plated,PTH,ComponentDrill
T2C0.800
; #@! TA.AperFunction,Plated,PTH,ComponentDrill
T3C1.000
; #@! TA.AperFunction,Plated,PTH,ComponentDrill
T4C1.300
; #@! TA.AperFunction,Plated,PTH,ComponentDrill
T5C2.700
; #@! TA.AperFunction,Plated,PTH,ComponentDrill
T6C4.300
%
G90
G05
T1
X146.17Y-60.925
X146.17Y-83.82
X146.17Y-104.14
X147.44Y-58.385
X147.44Y-81.28
X148.59Y-102.87
X148.71Y-55.845
X148.71Y-78.62
X148.71Y-100.33
X149.98Y-66.005
X151.13Y-90.17
X155.6Y-90.78
X156.21Y-78.74
X156.21Y-81.28
X156.21Y-83.82
X156.33Y-55.845
X156.33Y-58.385
X156.33Y-60.925
X156.33Y-68.545
X156.33Y-71.085
X156.87Y-93.32
X175.38Y-50.8
X186.175Y-68.545
X186.175Y-90.685
X186.175Y-113.03
T2
X109.22Y-96.48
X109.22Y-106.64
X113.985Y-101.64
X113.985Y-106.64
X118.985Y-96.48
X118.985Y-106.64
X123.985Y-101.64
X123.985Y-106.64
X128.985Y-96.48
X128.985Y-106.64
X133.985Y-101.64
X133.985Y-106.64
X169.647Y-43.18
X173.447Y-43.18
T3
X119.5Y-53.305
X119.5Y-55.845
X122.04Y-53.305
X122.04Y-55.845
X124.58Y-53.305
X124.58Y-55.845
X127.12Y-53.305
X127.12Y-55.845
X129.66Y-53.305
X129.66Y-55.845
X132.2Y-53.305
X132.2Y-55.845
X134.74Y-53.305
X134.74Y-55.845
X137.28Y-53.305
X137.28Y-55.845
X139.82Y-53.305
X139.82Y-55.845
X142.36Y-53.305
X142.36Y-55.845
X167.64Y-53.32
X167.64Y-55.86
X167.64Y-58.4
X167.64Y-60.94
X167.64Y-63.48
X167.64Y-66.02
X167.64Y-68.56
X167.64Y-71.1
X167.64Y-75.54
X167.64Y-78.08
X167.64Y-80.62
X167.64Y-83.16
X167.64Y-85.7
X167.64Y-88.24
X167.64Y-90.78
X167.64Y-93.32
X167.792Y-97.79
X167.792Y-100.33
X167.792Y-102.87
X167.792Y-105.41
X167.792Y-107.95
X167.792Y-110.49
X167.792Y-113.03
X167.792Y-115.57
X181.61Y-53.32
X181.61Y-55.86
X181.61Y-58.4
X181.61Y-60.94
X181.61Y-63.48
X181.61Y-66.02
X181.61Y-68.56
X181.61Y-71.1
X181.61Y-75.54
X181.61Y-78.08
X181.61Y-80.62
X181.61Y-83.16
X181.61Y-85.7
X181.61Y-88.24
X181.61Y-90.78
X181.61Y-93.32
X181.61Y-97.775
X181.61Y-100.315
X181.61Y-102.855
X181.61Y-105.395
X181.61Y-107.935
X181.61Y-110.475
X181.61Y-113.015
X181.61Y-115.555
T4
X157.475Y-39.675
X162.555Y-39.675
X194.31Y-54.575
X194.31Y-59.655
X194.31Y-64.735
X194.31Y-69.815
X194.31Y-76.81
X194.31Y-81.89
X194.31Y-86.97
X194.31Y-92.05
X194.31Y-99.06
X194.31Y-104.14
X194.31Y-109.22
X194.31Y-114.3
T5
X108.585Y-75.645
X108.585Y-80.645
X118.745Y-75.645
X118.745Y-80.645
X128.905Y-75.645
X128.905Y-80.645
T6
X111.76Y-41.17
X111.76Y-123.051
X194.032Y-41.086
X194.032Y-122.967
T0
M30
