%TF.GenerationSoftware,KiCad,Pcbnew,6.0.11+dfsg-1*%
%TF.CreationDate,2023-07-27T12:15:27+02:00*%
%TF.ProjectId,CartesianRobotElectricalDocs,43617274-6573-4696-916e-526f626f7445,rev?*%
%TF.SameCoordinates,Original*%
%TF.FileFunction,Legend,Top*%
%TF.FilePolarity,Positive*%
%FSLAX46Y46*%
G04 Gerber Fmt 4.6, Leading zero omitted, Abs format (unit mm)*
G04 Created by KiCad (PCBNEW 6.0.11+dfsg-1) date 2023-07-27 12:15:27*
%MOMM*%
%LPD*%
G01*
G04 APERTURE LIST*
%ADD10C,0.150000*%
%ADD11C,0.120000*%
%ADD12R,1.700000X1.700000*%
%ADD13O,1.700000X1.700000*%
%ADD14C,7.500000*%
%ADD15C,1.600000*%
%ADD16O,1.600000X1.600000*%
%ADD17C,2.600000*%
%ADD18R,2.600000X2.600000*%
%ADD19R,1.600000X1.600000*%
%ADD20C,3.800000*%
%ADD21R,3.800000X3.800000*%
G04 APERTURE END LIST*
D10*
%TO.C,REF\u002A\u002A*%
X110426666Y-36872380D02*
X110093333Y-36396190D01*
X109855238Y-36872380D02*
X109855238Y-35872380D01*
X110236190Y-35872380D01*
X110331428Y-35920000D01*
X110379047Y-35967619D01*
X110426666Y-36062857D01*
X110426666Y-36205714D01*
X110379047Y-36300952D01*
X110331428Y-36348571D01*
X110236190Y-36396190D01*
X109855238Y-36396190D01*
X110855238Y-36348571D02*
X111188571Y-36348571D01*
X111331428Y-36872380D02*
X110855238Y-36872380D01*
X110855238Y-35872380D01*
X111331428Y-35872380D01*
X112093333Y-36348571D02*
X111760000Y-36348571D01*
X111760000Y-36872380D02*
X111760000Y-35872380D01*
X112236190Y-35872380D01*
X112760000Y-35872380D02*
X112760000Y-36110476D01*
X112521904Y-36015238D02*
X112760000Y-36110476D01*
X112998095Y-36015238D01*
X112617142Y-36300952D02*
X112760000Y-36110476D01*
X112902857Y-36300952D01*
X113521904Y-35872380D02*
X113521904Y-36110476D01*
X113283809Y-36015238D02*
X113521904Y-36110476D01*
X113760000Y-36015238D01*
X113379047Y-36300952D02*
X113521904Y-36110476D01*
X113664761Y-36300952D01*
%TO.C,C6*%
X111842142Y-104306666D02*
X111889761Y-104354285D01*
X111937380Y-104497142D01*
X111937380Y-104592380D01*
X111889761Y-104735238D01*
X111794523Y-104830476D01*
X111699285Y-104878095D01*
X111508809Y-104925714D01*
X111365952Y-104925714D01*
X111175476Y-104878095D01*
X111080238Y-104830476D01*
X110985000Y-104735238D01*
X110937380Y-104592380D01*
X110937380Y-104497142D01*
X110985000Y-104354285D01*
X111032619Y-104306666D01*
X110937380Y-103449523D02*
X110937380Y-103640000D01*
X110985000Y-103735238D01*
X111032619Y-103782857D01*
X111175476Y-103878095D01*
X111365952Y-103925714D01*
X111746904Y-103925714D01*
X111842142Y-103878095D01*
X111889761Y-103830476D01*
X111937380Y-103735238D01*
X111937380Y-103544761D01*
X111889761Y-103449523D01*
X111842142Y-103401904D01*
X111746904Y-103354285D01*
X111508809Y-103354285D01*
X111413571Y-103401904D01*
X111365952Y-103449523D01*
X111318333Y-103544761D01*
X111318333Y-103735238D01*
X111365952Y-103830476D01*
X111413571Y-103878095D01*
X111508809Y-103925714D01*
%TO.C,A4988*%
X174021666Y-64372857D02*
X174021666Y-63896666D01*
X174307380Y-64468095D02*
X173307380Y-64134761D01*
X174307380Y-63801428D01*
X173640714Y-63039523D02*
X174307380Y-63039523D01*
X173259761Y-63277619D02*
X173974047Y-63515714D01*
X173974047Y-62896666D01*
X174307380Y-62468095D02*
X174307380Y-62277619D01*
X174259761Y-62182380D01*
X174212142Y-62134761D01*
X174069285Y-62039523D01*
X173878809Y-61991904D01*
X173497857Y-61991904D01*
X173402619Y-62039523D01*
X173355000Y-62087142D01*
X173307380Y-62182380D01*
X173307380Y-62372857D01*
X173355000Y-62468095D01*
X173402619Y-62515714D01*
X173497857Y-62563333D01*
X173735952Y-62563333D01*
X173831190Y-62515714D01*
X173878809Y-62468095D01*
X173926428Y-62372857D01*
X173926428Y-62182380D01*
X173878809Y-62087142D01*
X173831190Y-62039523D01*
X173735952Y-61991904D01*
X173735952Y-61420476D02*
X173688333Y-61515714D01*
X173640714Y-61563333D01*
X173545476Y-61610952D01*
X173497857Y-61610952D01*
X173402619Y-61563333D01*
X173355000Y-61515714D01*
X173307380Y-61420476D01*
X173307380Y-61230000D01*
X173355000Y-61134761D01*
X173402619Y-61087142D01*
X173497857Y-61039523D01*
X173545476Y-61039523D01*
X173640714Y-61087142D01*
X173688333Y-61134761D01*
X173735952Y-61230000D01*
X173735952Y-61420476D01*
X173783571Y-61515714D01*
X173831190Y-61563333D01*
X173926428Y-61610952D01*
X174116904Y-61610952D01*
X174212142Y-61563333D01*
X174259761Y-61515714D01*
X174307380Y-61420476D01*
X174307380Y-61230000D01*
X174259761Y-61134761D01*
X174212142Y-61087142D01*
X174116904Y-61039523D01*
X173926428Y-61039523D01*
X173831190Y-61087142D01*
X173783571Y-61134761D01*
X173735952Y-61230000D01*
X173735952Y-60468095D02*
X173688333Y-60563333D01*
X173640714Y-60610952D01*
X173545476Y-60658571D01*
X173497857Y-60658571D01*
X173402619Y-60610952D01*
X173355000Y-60563333D01*
X173307380Y-60468095D01*
X173307380Y-60277619D01*
X173355000Y-60182380D01*
X173402619Y-60134761D01*
X173497857Y-60087142D01*
X173545476Y-60087142D01*
X173640714Y-60134761D01*
X173688333Y-60182380D01*
X173735952Y-60277619D01*
X173735952Y-60468095D01*
X173783571Y-60563333D01*
X173831190Y-60610952D01*
X173926428Y-60658571D01*
X174116904Y-60658571D01*
X174212142Y-60610952D01*
X174259761Y-60563333D01*
X174307380Y-60468095D01*
X174307380Y-60277619D01*
X174259761Y-60182380D01*
X174212142Y-60134761D01*
X174116904Y-60087142D01*
X173926428Y-60087142D01*
X173831190Y-60134761D01*
X173783571Y-60182380D01*
X173735952Y-60277619D01*
%TO.C,R1*%
X107302380Y-101726666D02*
X106826190Y-102060000D01*
X107302380Y-102298095D02*
X106302380Y-102298095D01*
X106302380Y-101917142D01*
X106350000Y-101821904D01*
X106397619Y-101774285D01*
X106492857Y-101726666D01*
X106635714Y-101726666D01*
X106730952Y-101774285D01*
X106778571Y-101821904D01*
X106826190Y-101917142D01*
X106826190Y-102298095D01*
X107302380Y-100774285D02*
X107302380Y-101345714D01*
X107302380Y-101060000D02*
X106302380Y-101060000D01*
X106445238Y-101155238D01*
X106540476Y-101250476D01*
X106588095Y-101345714D01*
%TO.C,C4*%
X131842142Y-104306666D02*
X131889761Y-104354285D01*
X131937380Y-104497142D01*
X131937380Y-104592380D01*
X131889761Y-104735238D01*
X131794523Y-104830476D01*
X131699285Y-104878095D01*
X131508809Y-104925714D01*
X131365952Y-104925714D01*
X131175476Y-104878095D01*
X131080238Y-104830476D01*
X130985000Y-104735238D01*
X130937380Y-104592380D01*
X130937380Y-104497142D01*
X130985000Y-104354285D01*
X131032619Y-104306666D01*
X131270714Y-103449523D02*
X131937380Y-103449523D01*
X130889761Y-103687619D02*
X131604047Y-103925714D01*
X131604047Y-103306666D01*
%TO.C,R3*%
X127067380Y-101726666D02*
X126591190Y-102060000D01*
X127067380Y-102298095D02*
X126067380Y-102298095D01*
X126067380Y-101917142D01*
X126115000Y-101821904D01*
X126162619Y-101774285D01*
X126257857Y-101726666D01*
X126400714Y-101726666D01*
X126495952Y-101774285D01*
X126543571Y-101821904D01*
X126591190Y-101917142D01*
X126591190Y-102298095D01*
X126067380Y-101393333D02*
X126067380Y-100774285D01*
X126448333Y-101107619D01*
X126448333Y-100964761D01*
X126495952Y-100869523D01*
X126543571Y-100821904D01*
X126638809Y-100774285D01*
X126876904Y-100774285D01*
X126972142Y-100821904D01*
X127019761Y-100869523D01*
X127067380Y-100964761D01*
X127067380Y-101250476D01*
X127019761Y-101345714D01*
X126972142Y-101393333D01*
%TO.C,C1*%
X171380682Y-38287142D02*
X171333063Y-38334761D01*
X171190206Y-38382380D01*
X171094968Y-38382380D01*
X170952110Y-38334761D01*
X170856872Y-38239523D01*
X170809253Y-38144285D01*
X170761634Y-37953809D01*
X170761634Y-37810952D01*
X170809253Y-37620476D01*
X170856872Y-37525238D01*
X170952110Y-37430000D01*
X171094968Y-37382380D01*
X171190206Y-37382380D01*
X171333063Y-37430000D01*
X171380682Y-37477619D01*
X172333063Y-38382380D02*
X171761634Y-38382380D01*
X172047349Y-38382380D02*
X172047349Y-37382380D01*
X171952110Y-37525238D01*
X171856872Y-37620476D01*
X171761634Y-37668095D01*
%TO.C,SW 3*%
X132484761Y-87439285D02*
X132532380Y-87296428D01*
X132532380Y-87058333D01*
X132484761Y-86963095D01*
X132437142Y-86915476D01*
X132341904Y-86867857D01*
X132246666Y-86867857D01*
X132151428Y-86915476D01*
X132103809Y-86963095D01*
X132056190Y-87058333D01*
X132008571Y-87248809D01*
X131960952Y-87344047D01*
X131913333Y-87391666D01*
X131818095Y-87439285D01*
X131722857Y-87439285D01*
X131627619Y-87391666D01*
X131580000Y-87344047D01*
X131532380Y-87248809D01*
X131532380Y-87010714D01*
X131580000Y-86867857D01*
X131532380Y-86534523D02*
X132532380Y-86296428D01*
X131818095Y-86105952D01*
X132532380Y-85915476D01*
X131532380Y-85677380D01*
X131532380Y-84629761D02*
X131532380Y-84010714D01*
X131913333Y-84344047D01*
X131913333Y-84201190D01*
X131960952Y-84105952D01*
X132008571Y-84058333D01*
X132103809Y-84010714D01*
X132341904Y-84010714D01*
X132437142Y-84058333D01*
X132484761Y-84105952D01*
X132532380Y-84201190D01*
X132532380Y-84486904D01*
X132484761Y-84582142D01*
X132437142Y-84629761D01*
X129012142Y-72216428D02*
X129012142Y-71073571D01*
X129583571Y-71645000D02*
X128440714Y-71645000D01*
X133457142Y-80581428D02*
X133457142Y-79438571D01*
%TO.C,REF\u002A\u002A*%
X192698666Y-36788380D02*
X192365333Y-36312190D01*
X192127238Y-36788380D02*
X192127238Y-35788380D01*
X192508190Y-35788380D01*
X192603428Y-35836000D01*
X192651047Y-35883619D01*
X192698666Y-35978857D01*
X192698666Y-36121714D01*
X192651047Y-36216952D01*
X192603428Y-36264571D01*
X192508190Y-36312190D01*
X192127238Y-36312190D01*
X193127238Y-36264571D02*
X193460571Y-36264571D01*
X193603428Y-36788380D02*
X193127238Y-36788380D01*
X193127238Y-35788380D01*
X193603428Y-35788380D01*
X194365333Y-36264571D02*
X194032000Y-36264571D01*
X194032000Y-36788380D02*
X194032000Y-35788380D01*
X194508190Y-35788380D01*
X195032000Y-35788380D02*
X195032000Y-36026476D01*
X194793904Y-35931238D02*
X195032000Y-36026476D01*
X195270095Y-35931238D01*
X194889142Y-36216952D02*
X195032000Y-36026476D01*
X195174857Y-36216952D01*
X195793904Y-35788380D02*
X195793904Y-36026476D01*
X195555809Y-35931238D02*
X195793904Y-36026476D01*
X196032000Y-35931238D01*
X195651047Y-36216952D02*
X195793904Y-36026476D01*
X195936761Y-36216952D01*
%TO.C,SW 2*%
X122324761Y-87439285D02*
X122372380Y-87296428D01*
X122372380Y-87058333D01*
X122324761Y-86963095D01*
X122277142Y-86915476D01*
X122181904Y-86867857D01*
X122086666Y-86867857D01*
X121991428Y-86915476D01*
X121943809Y-86963095D01*
X121896190Y-87058333D01*
X121848571Y-87248809D01*
X121800952Y-87344047D01*
X121753333Y-87391666D01*
X121658095Y-87439285D01*
X121562857Y-87439285D01*
X121467619Y-87391666D01*
X121420000Y-87344047D01*
X121372380Y-87248809D01*
X121372380Y-87010714D01*
X121420000Y-86867857D01*
X121372380Y-86534523D02*
X122372380Y-86296428D01*
X121658095Y-86105952D01*
X122372380Y-85915476D01*
X121372380Y-85677380D01*
X121467619Y-84582142D02*
X121420000Y-84534523D01*
X121372380Y-84439285D01*
X121372380Y-84201190D01*
X121420000Y-84105952D01*
X121467619Y-84058333D01*
X121562857Y-84010714D01*
X121658095Y-84010714D01*
X121800952Y-84058333D01*
X122372380Y-84629761D01*
X122372380Y-84010714D01*
X123297142Y-80581428D02*
X123297142Y-79438571D01*
X118352142Y-72216428D02*
X118352142Y-71073571D01*
X118923571Y-71645000D02*
X117780714Y-71645000D01*
%TO.C,A4988*%
X173701666Y-86622457D02*
X173701666Y-86146266D01*
X173987380Y-86717695D02*
X172987380Y-86384361D01*
X173987380Y-86051028D01*
X173320714Y-85289123D02*
X173987380Y-85289123D01*
X172939761Y-85527219D02*
X173654047Y-85765314D01*
X173654047Y-85146266D01*
X173987380Y-84717695D02*
X173987380Y-84527219D01*
X173939761Y-84431980D01*
X173892142Y-84384361D01*
X173749285Y-84289123D01*
X173558809Y-84241504D01*
X173177857Y-84241504D01*
X173082619Y-84289123D01*
X173035000Y-84336742D01*
X172987380Y-84431980D01*
X172987380Y-84622457D01*
X173035000Y-84717695D01*
X173082619Y-84765314D01*
X173177857Y-84812933D01*
X173415952Y-84812933D01*
X173511190Y-84765314D01*
X173558809Y-84717695D01*
X173606428Y-84622457D01*
X173606428Y-84431980D01*
X173558809Y-84336742D01*
X173511190Y-84289123D01*
X173415952Y-84241504D01*
X173415952Y-83670076D02*
X173368333Y-83765314D01*
X173320714Y-83812933D01*
X173225476Y-83860552D01*
X173177857Y-83860552D01*
X173082619Y-83812933D01*
X173035000Y-83765314D01*
X172987380Y-83670076D01*
X172987380Y-83479600D01*
X173035000Y-83384361D01*
X173082619Y-83336742D01*
X173177857Y-83289123D01*
X173225476Y-83289123D01*
X173320714Y-83336742D01*
X173368333Y-83384361D01*
X173415952Y-83479600D01*
X173415952Y-83670076D01*
X173463571Y-83765314D01*
X173511190Y-83812933D01*
X173606428Y-83860552D01*
X173796904Y-83860552D01*
X173892142Y-83812933D01*
X173939761Y-83765314D01*
X173987380Y-83670076D01*
X173987380Y-83479600D01*
X173939761Y-83384361D01*
X173892142Y-83336742D01*
X173796904Y-83289123D01*
X173606428Y-83289123D01*
X173511190Y-83336742D01*
X173463571Y-83384361D01*
X173415952Y-83479600D01*
X173415952Y-82717695D02*
X173368333Y-82812933D01*
X173320714Y-82860552D01*
X173225476Y-82908171D01*
X173177857Y-82908171D01*
X173082619Y-82860552D01*
X173035000Y-82812933D01*
X172987380Y-82717695D01*
X172987380Y-82527219D01*
X173035000Y-82431980D01*
X173082619Y-82384361D01*
X173177857Y-82336742D01*
X173225476Y-82336742D01*
X173320714Y-82384361D01*
X173368333Y-82431980D01*
X173415952Y-82527219D01*
X173415952Y-82717695D01*
X173463571Y-82812933D01*
X173511190Y-82860552D01*
X173606428Y-82908171D01*
X173796904Y-82908171D01*
X173892142Y-82860552D01*
X173939761Y-82812933D01*
X173987380Y-82717695D01*
X173987380Y-82527219D01*
X173939761Y-82431980D01*
X173892142Y-82384361D01*
X173796904Y-82336742D01*
X173606428Y-82336742D01*
X173511190Y-82384361D01*
X173463571Y-82431980D01*
X173415952Y-82527219D01*
%TO.C,R2*%
X117067380Y-101726666D02*
X116591190Y-102060000D01*
X117067380Y-102298095D02*
X116067380Y-102298095D01*
X116067380Y-101917142D01*
X116115000Y-101821904D01*
X116162619Y-101774285D01*
X116257857Y-101726666D01*
X116400714Y-101726666D01*
X116495952Y-101774285D01*
X116543571Y-101821904D01*
X116591190Y-101917142D01*
X116591190Y-102298095D01*
X116162619Y-101345714D02*
X116115000Y-101298095D01*
X116067380Y-101202857D01*
X116067380Y-100964761D01*
X116115000Y-100869523D01*
X116162619Y-100821904D01*
X116257857Y-100774285D01*
X116353095Y-100774285D01*
X116495952Y-100821904D01*
X117067380Y-101393333D01*
X117067380Y-100774285D01*
%TO.C,M3*%
X193700476Y-50617380D02*
X193700476Y-49617380D01*
X194033809Y-50331666D01*
X194367142Y-49617380D01*
X194367142Y-50617380D01*
X194748095Y-49617380D02*
X195367142Y-49617380D01*
X195033809Y-49998333D01*
X195176666Y-49998333D01*
X195271904Y-50045952D01*
X195319523Y-50093571D01*
X195367142Y-50188809D01*
X195367142Y-50426904D01*
X195319523Y-50522142D01*
X195271904Y-50569761D01*
X195176666Y-50617380D01*
X194890952Y-50617380D01*
X194795714Y-50569761D01*
X194748095Y-50522142D01*
%TO.C,REF\u002A\u002A*%
X117622380Y-55908333D02*
X117146190Y-56241666D01*
X117622380Y-56479761D02*
X116622380Y-56479761D01*
X116622380Y-56098809D01*
X116670000Y-56003571D01*
X116717619Y-55955952D01*
X116812857Y-55908333D01*
X116955714Y-55908333D01*
X117050952Y-55955952D01*
X117098571Y-56003571D01*
X117146190Y-56098809D01*
X117146190Y-56479761D01*
X117098571Y-55479761D02*
X117098571Y-55146428D01*
X117622380Y-55003571D02*
X117622380Y-55479761D01*
X116622380Y-55479761D01*
X116622380Y-55003571D01*
X117098571Y-54241666D02*
X117098571Y-54575000D01*
X117622380Y-54575000D02*
X116622380Y-54575000D01*
X116622380Y-54098809D01*
X116622380Y-53575000D02*
X116860476Y-53575000D01*
X116765238Y-53813095D02*
X116860476Y-53575000D01*
X116765238Y-53336904D01*
X117050952Y-53717857D02*
X116860476Y-53575000D01*
X117050952Y-53432142D01*
X116622380Y-52813095D02*
X116860476Y-52813095D01*
X116765238Y-53051190D02*
X116860476Y-52813095D01*
X116765238Y-52575000D01*
X117050952Y-52955952D02*
X116860476Y-52813095D01*
X117050952Y-52670238D01*
X192698666Y-118669079D02*
X192365333Y-118192889D01*
X192127238Y-118669079D02*
X192127238Y-117669079D01*
X192508190Y-117669079D01*
X192603428Y-117716699D01*
X192651047Y-117764318D01*
X192698666Y-117859556D01*
X192698666Y-118002413D01*
X192651047Y-118097651D01*
X192603428Y-118145270D01*
X192508190Y-118192889D01*
X192127238Y-118192889D01*
X193127238Y-118145270D02*
X193460571Y-118145270D01*
X193603428Y-118669079D02*
X193127238Y-118669079D01*
X193127238Y-117669079D01*
X193603428Y-117669079D01*
X194365333Y-118145270D02*
X194032000Y-118145270D01*
X194032000Y-118669079D02*
X194032000Y-117669079D01*
X194508190Y-117669079D01*
X195032000Y-117669079D02*
X195032000Y-117907175D01*
X194793904Y-117811937D02*
X195032000Y-117907175D01*
X195270095Y-117811937D01*
X194889142Y-118097651D02*
X195032000Y-117907175D01*
X195174857Y-118097651D01*
X195793904Y-117669079D02*
X195793904Y-117907175D01*
X195555809Y-117811937D02*
X195793904Y-117907175D01*
X196032000Y-117811937D01*
X195651047Y-118097651D02*
X195793904Y-117907175D01*
X195936761Y-118097651D01*
%TO.C,C5*%
X121842142Y-104306666D02*
X121889761Y-104354285D01*
X121937380Y-104497142D01*
X121937380Y-104592380D01*
X121889761Y-104735238D01*
X121794523Y-104830476D01*
X121699285Y-104878095D01*
X121508809Y-104925714D01*
X121365952Y-104925714D01*
X121175476Y-104878095D01*
X121080238Y-104830476D01*
X120985000Y-104735238D01*
X120937380Y-104592380D01*
X120937380Y-104497142D01*
X120985000Y-104354285D01*
X121032619Y-104306666D01*
X120937380Y-103401904D02*
X120937380Y-103878095D01*
X121413571Y-103925714D01*
X121365952Y-103878095D01*
X121318333Y-103782857D01*
X121318333Y-103544761D01*
X121365952Y-103449523D01*
X121413571Y-103401904D01*
X121508809Y-103354285D01*
X121746904Y-103354285D01*
X121842142Y-103401904D01*
X121889761Y-103449523D01*
X121937380Y-103544761D01*
X121937380Y-103782857D01*
X121889761Y-103878095D01*
X121842142Y-103925714D01*
%TO.C,REF\u002A\u002A*%
X111466666Y-118283079D02*
X111133333Y-117806889D01*
X110895238Y-118283079D02*
X110895238Y-117283079D01*
X111276190Y-117283079D01*
X111371428Y-117330699D01*
X111419047Y-117378318D01*
X111466666Y-117473556D01*
X111466666Y-117616413D01*
X111419047Y-117711651D01*
X111371428Y-117759270D01*
X111276190Y-117806889D01*
X110895238Y-117806889D01*
X111895238Y-117759270D02*
X112228571Y-117759270D01*
X112371428Y-118283079D02*
X111895238Y-118283079D01*
X111895238Y-117283079D01*
X112371428Y-117283079D01*
X113133333Y-117759270D02*
X112800000Y-117759270D01*
X112800000Y-118283079D02*
X112800000Y-117283079D01*
X113276190Y-117283079D01*
X113800000Y-117283079D02*
X113800000Y-117521175D01*
X113561904Y-117425937D02*
X113800000Y-117521175D01*
X114038095Y-117425937D01*
X113657142Y-117711651D02*
X113800000Y-117521175D01*
X113942857Y-117711651D01*
X114561904Y-117283079D02*
X114561904Y-117521175D01*
X114323809Y-117425937D02*
X114561904Y-117521175D01*
X114800000Y-117425937D01*
X114419047Y-117711651D02*
X114561904Y-117521175D01*
X114704761Y-117711651D01*
%TO.C,A4988*%
X173854066Y-109507857D02*
X173854066Y-109031666D01*
X174139780Y-109603095D02*
X173139780Y-109269761D01*
X174139780Y-108936428D01*
X173473114Y-108174523D02*
X174139780Y-108174523D01*
X173092161Y-108412619D02*
X173806447Y-108650714D01*
X173806447Y-108031666D01*
X174139780Y-107603095D02*
X174139780Y-107412619D01*
X174092161Y-107317380D01*
X174044542Y-107269761D01*
X173901685Y-107174523D01*
X173711209Y-107126904D01*
X173330257Y-107126904D01*
X173235019Y-107174523D01*
X173187400Y-107222142D01*
X173139780Y-107317380D01*
X173139780Y-107507857D01*
X173187400Y-107603095D01*
X173235019Y-107650714D01*
X173330257Y-107698333D01*
X173568352Y-107698333D01*
X173663590Y-107650714D01*
X173711209Y-107603095D01*
X173758828Y-107507857D01*
X173758828Y-107317380D01*
X173711209Y-107222142D01*
X173663590Y-107174523D01*
X173568352Y-107126904D01*
X173568352Y-106555476D02*
X173520733Y-106650714D01*
X173473114Y-106698333D01*
X173377876Y-106745952D01*
X173330257Y-106745952D01*
X173235019Y-106698333D01*
X173187400Y-106650714D01*
X173139780Y-106555476D01*
X173139780Y-106365000D01*
X173187400Y-106269761D01*
X173235019Y-106222142D01*
X173330257Y-106174523D01*
X173377876Y-106174523D01*
X173473114Y-106222142D01*
X173520733Y-106269761D01*
X173568352Y-106365000D01*
X173568352Y-106555476D01*
X173615971Y-106650714D01*
X173663590Y-106698333D01*
X173758828Y-106745952D01*
X173949304Y-106745952D01*
X174044542Y-106698333D01*
X174092161Y-106650714D01*
X174139780Y-106555476D01*
X174139780Y-106365000D01*
X174092161Y-106269761D01*
X174044542Y-106222142D01*
X173949304Y-106174523D01*
X173758828Y-106174523D01*
X173663590Y-106222142D01*
X173615971Y-106269761D01*
X173568352Y-106365000D01*
X173568352Y-105603095D02*
X173520733Y-105698333D01*
X173473114Y-105745952D01*
X173377876Y-105793571D01*
X173330257Y-105793571D01*
X173235019Y-105745952D01*
X173187400Y-105698333D01*
X173139780Y-105603095D01*
X173139780Y-105412619D01*
X173187400Y-105317380D01*
X173235019Y-105269761D01*
X173330257Y-105222142D01*
X173377876Y-105222142D01*
X173473114Y-105269761D01*
X173520733Y-105317380D01*
X173568352Y-105412619D01*
X173568352Y-105603095D01*
X173615971Y-105698333D01*
X173663590Y-105745952D01*
X173758828Y-105793571D01*
X173949304Y-105793571D01*
X174044542Y-105745952D01*
X174092161Y-105698333D01*
X174139780Y-105603095D01*
X174139780Y-105412619D01*
X174092161Y-105317380D01*
X174044542Y-105269761D01*
X173949304Y-105222142D01*
X173758828Y-105222142D01*
X173663590Y-105269761D01*
X173615971Y-105317380D01*
X173568352Y-105412619D01*
%TO.C,SW 1*%
X111529761Y-87439285D02*
X111577380Y-87296428D01*
X111577380Y-87058333D01*
X111529761Y-86963095D01*
X111482142Y-86915476D01*
X111386904Y-86867857D01*
X111291666Y-86867857D01*
X111196428Y-86915476D01*
X111148809Y-86963095D01*
X111101190Y-87058333D01*
X111053571Y-87248809D01*
X111005952Y-87344047D01*
X110958333Y-87391666D01*
X110863095Y-87439285D01*
X110767857Y-87439285D01*
X110672619Y-87391666D01*
X110625000Y-87344047D01*
X110577380Y-87248809D01*
X110577380Y-87010714D01*
X110625000Y-86867857D01*
X110577380Y-86534523D02*
X111577380Y-86296428D01*
X110863095Y-86105952D01*
X111577380Y-85915476D01*
X110577380Y-85677380D01*
X111577380Y-84010714D02*
X111577380Y-84582142D01*
X111577380Y-84296428D02*
X110577380Y-84296428D01*
X110720238Y-84391666D01*
X110815476Y-84486904D01*
X110863095Y-84582142D01*
X113137142Y-80581428D02*
X113137142Y-79438571D01*
X108692142Y-72216428D02*
X108692142Y-71073571D01*
X109263571Y-71645000D02*
X108120714Y-71645000D01*
D11*
%TO.C,REF\u002A\u002A*%
X182940000Y-114285000D02*
X182940000Y-96445000D01*
X182940000Y-115555000D02*
X182940000Y-116885000D01*
X182940000Y-96445000D02*
X180280000Y-96445000D01*
X182940000Y-116885000D02*
X181610000Y-116885000D01*
X180280000Y-114285000D02*
X180280000Y-96445000D01*
X182940000Y-114285000D02*
X180280000Y-114285000D01*
%TO.C,C6*%
X112615000Y-100020000D02*
X115355000Y-100020000D01*
X112615000Y-108260000D02*
X112615000Y-100020000D01*
X115355000Y-108260000D02*
X115355000Y-100020000D01*
X112615000Y-108260000D02*
X115355000Y-108260000D01*
%TO.C,A4988*%
X168970000Y-72430000D02*
X167640000Y-72430000D01*
X166310000Y-69830000D02*
X166310000Y-51990000D01*
X168970000Y-71100000D02*
X168970000Y-72430000D01*
X168970000Y-51990000D02*
X166310000Y-51990000D01*
X168970000Y-69830000D02*
X166310000Y-69830000D01*
X168970000Y-69830000D02*
X168970000Y-51990000D01*
%TO.C,R1*%
X110590000Y-98290000D02*
X107850000Y-98290000D01*
X107850000Y-104830000D02*
X110590000Y-104830000D01*
X109220000Y-97520000D02*
X109220000Y-98290000D01*
X107850000Y-98290000D02*
X107850000Y-104830000D01*
X110590000Y-104830000D02*
X110590000Y-98290000D01*
X109220000Y-105600000D02*
X109220000Y-104830000D01*
%TO.C,C4*%
X132615000Y-108260000D02*
X135355000Y-108260000D01*
X132615000Y-100020000D02*
X135355000Y-100020000D01*
X135355000Y-108260000D02*
X135355000Y-100020000D01*
X132615000Y-108260000D02*
X132615000Y-100020000D01*
%TO.C,M2*%
X195990000Y-86969600D02*
G75*
G03*
X195990000Y-86969600I-1680000J0D01*
G01*
X195990000Y-92049600D02*
G75*
G03*
X195990000Y-92049600I-1680000J0D01*
G01*
X195990000Y-81889600D02*
G75*
G03*
X195990000Y-81889600I-1680000J0D01*
G01*
X193626000Y-78344601D02*
G75*
G03*
X194993042Y-78345027I684000J1535001D01*
G01*
X192775000Y-76125600D02*
G75*
G03*
X192629747Y-76838405I1535001J-683999D01*
G01*
X192630000Y-76809600D02*
G75*
G03*
X192775244Y-77492918I1680000J0D01*
G01*
X195845000Y-77493600D02*
G75*
G03*
X195845427Y-76126558I-1534993J684001D01*
G01*
X194994000Y-75274600D02*
G75*
G03*
X193626958Y-75274173I-684001J-1534993D01*
G01*
X190210000Y-74209600D02*
X190210000Y-94649600D01*
X199571000Y-74209600D02*
X199571000Y-94649600D01*
X195379000Y-88244600D02*
X195333000Y-88197600D01*
X190150000Y-73969600D02*
X189410000Y-73969600D01*
X199571000Y-74209600D02*
X189650000Y-74209600D01*
X193071000Y-85935600D02*
X193036000Y-85900600D01*
X189410000Y-73969600D02*
X189410000Y-74469600D01*
X195585000Y-88039600D02*
X195549000Y-88004600D01*
X195379000Y-93324600D02*
X195333000Y-93277600D01*
X196611000Y-74209600D02*
X196611000Y-94649600D01*
X193287000Y-90822600D02*
X193241000Y-90775600D01*
X195379000Y-83164600D02*
X195333000Y-83117600D01*
X191710000Y-74209600D02*
X191710000Y-94649600D01*
X189650000Y-74209600D02*
X189650000Y-94649600D01*
X195585000Y-93119600D02*
X195549000Y-93084600D01*
X193071000Y-91015600D02*
X193036000Y-90980600D01*
X193287000Y-80662600D02*
X193241000Y-80615600D01*
X195585000Y-82959600D02*
X195549000Y-82924600D01*
X199571000Y-94649600D02*
X189650000Y-94649600D01*
X193071000Y-80855600D02*
X193036000Y-80820600D01*
X193287000Y-85742600D02*
X193241000Y-85695600D01*
%TO.C,R3*%
X128985000Y-105600000D02*
X128985000Y-104830000D01*
X128985000Y-97520000D02*
X128985000Y-98290000D01*
X127615000Y-98290000D02*
X127615000Y-104830000D01*
X130355000Y-98290000D02*
X127615000Y-98290000D01*
X130355000Y-104830000D02*
X130355000Y-98290000D01*
X127615000Y-104830000D02*
X130355000Y-104830000D01*
%TO.C,REF\u002A\u002A*%
X154635000Y-43835000D02*
X154635000Y-44575000D01*
X154875000Y-34414000D02*
X154875000Y-44335000D01*
X154875000Y-44335000D02*
X165155000Y-44335000D01*
X154875000Y-34414000D02*
X165155000Y-34414000D01*
X154875000Y-42275000D02*
X165155000Y-42275000D01*
X154875000Y-37374000D02*
X165155000Y-37374000D01*
X154875000Y-43775000D02*
X165155000Y-43775000D01*
X161521000Y-40914000D02*
X161486000Y-40949000D01*
X163625000Y-38400000D02*
X163590000Y-38436000D01*
X161328000Y-40698000D02*
X161281000Y-40744000D01*
X163830000Y-38606000D02*
X163783000Y-38652000D01*
X154635000Y-44575000D02*
X155135000Y-44575000D01*
X165155000Y-34414000D02*
X165155000Y-44335000D01*
X155940000Y-38991000D02*
G75*
G03*
X155939573Y-40358042I1534993J-684001D01*
G01*
X157475000Y-41355000D02*
G75*
G03*
X158158318Y-41209756I0J1680000D01*
G01*
X158159000Y-38140000D02*
G75*
G03*
X156791958Y-38139573I-684001J-1534993D01*
G01*
X156791000Y-41210000D02*
G75*
G03*
X157503805Y-41355253I683999J1535001D01*
G01*
X159010001Y-40359000D02*
G75*
G03*
X159010427Y-38991958I-1535001J684000D01*
G01*
X164235000Y-39675000D02*
G75*
G03*
X164235000Y-39675000I-1680000J0D01*
G01*
%TO.C,C1*%
X173468349Y-44220000D02*
X173468349Y-46786000D01*
X174788349Y-40675000D02*
X174788349Y-45685000D01*
X172468349Y-39204000D02*
X172468349Y-42140000D01*
X173588349Y-39640000D02*
X173588349Y-42140000D01*
X174028349Y-44220000D02*
X174028349Y-46430000D01*
X173548349Y-44220000D02*
X173548349Y-46742000D01*
X172828349Y-39303000D02*
X172828349Y-42140000D01*
X174308349Y-40161000D02*
X174308349Y-42140000D01*
X173188349Y-39440000D02*
X173188349Y-42140000D01*
X167537651Y-40465000D02*
X167537651Y-41265000D01*
X172027349Y-39128000D02*
X172027349Y-47232000D01*
X174068349Y-39960000D02*
X174068349Y-42140000D01*
X172788349Y-39291000D02*
X172788349Y-42140000D01*
X173228349Y-39458000D02*
X173228349Y-42140000D01*
X173028349Y-39375000D02*
X173028349Y-42140000D01*
X172668349Y-44220000D02*
X172668349Y-47105000D01*
X171947349Y-39119000D02*
X171947349Y-47241000D01*
X174188349Y-44220000D02*
X174188349Y-46304000D01*
X175628349Y-42647000D02*
X175628349Y-43713000D01*
X173908349Y-44220000D02*
X173908349Y-46518000D01*
X172708349Y-44220000D02*
X172708349Y-47094000D01*
X174828349Y-40726000D02*
X174828349Y-45634000D01*
X174268349Y-40125000D02*
X174268349Y-42140000D01*
X174148349Y-44220000D02*
X174148349Y-46336000D01*
X173108349Y-39406000D02*
X173108349Y-42140000D01*
X173028349Y-44220000D02*
X173028349Y-46985000D01*
X172948349Y-44220000D02*
X172948349Y-47015000D01*
X174748349Y-40624000D02*
X174748349Y-45736000D01*
X173308349Y-44220000D02*
X173308349Y-46866000D01*
X172187349Y-39150000D02*
X172187349Y-47210000D01*
X173508349Y-39596000D02*
X173508349Y-42140000D01*
X172628349Y-44220000D02*
X172628349Y-47116000D01*
X174628349Y-40483000D02*
X174628349Y-45877000D01*
X175268349Y-41449000D02*
X175268349Y-44911000D01*
X173988349Y-39900000D02*
X173988349Y-42140000D01*
X172508349Y-39213000D02*
X172508349Y-42140000D01*
X174348349Y-40197000D02*
X174348349Y-42140000D01*
X172908349Y-39330000D02*
X172908349Y-42140000D01*
X173828349Y-39788000D02*
X173828349Y-42140000D01*
X173788349Y-44220000D02*
X173788349Y-46598000D01*
X175468349Y-41951000D02*
X175468349Y-44409000D01*
X172508349Y-44220000D02*
X172508349Y-47147000D01*
X173708349Y-39711000D02*
X173708349Y-42140000D01*
X174908349Y-40835000D02*
X174908349Y-45525000D01*
X175148349Y-41216000D02*
X175148349Y-45144000D01*
X173268349Y-39476000D02*
X173268349Y-42140000D01*
X175228349Y-41367000D02*
X175228349Y-44993000D01*
X173948349Y-44220000D02*
X173948349Y-46489000D01*
X174988349Y-40952000D02*
X174988349Y-45408000D01*
X174508349Y-40354000D02*
X174508349Y-46006000D01*
X172748349Y-44220000D02*
X172748349Y-47082000D01*
X173748349Y-44220000D02*
X173748349Y-46624000D01*
X173348349Y-44220000D02*
X173348349Y-46846000D01*
X173708349Y-44220000D02*
X173708349Y-46649000D01*
X173188349Y-44220000D02*
X173188349Y-46920000D01*
X173548349Y-39618000D02*
X173548349Y-42140000D01*
X175548349Y-42232000D02*
X175548349Y-44128000D01*
X174028349Y-39930000D02*
X174028349Y-42140000D01*
X172548349Y-44220000D02*
X172548349Y-47137000D01*
X173508349Y-44220000D02*
X173508349Y-46764000D01*
X173628349Y-44220000D02*
X173628349Y-46697000D01*
X171867349Y-39112000D02*
X171867349Y-47248000D01*
X174108349Y-44220000D02*
X174108349Y-46369000D01*
X172147349Y-39143000D02*
X172147349Y-47217000D01*
X171907349Y-39115000D02*
X171907349Y-47245000D01*
X172868349Y-44220000D02*
X172868349Y-47043000D01*
X174388349Y-44220000D02*
X174388349Y-46125000D01*
X175068349Y-41078000D02*
X175068349Y-45282000D01*
X174268349Y-44220000D02*
X174268349Y-46235000D01*
X173668349Y-39687000D02*
X173668349Y-42140000D01*
X175428349Y-41834000D02*
X175428349Y-44526000D01*
X173348349Y-39514000D02*
X173348349Y-42140000D01*
X174948349Y-40893000D02*
X174948349Y-45467000D01*
X174668349Y-40529000D02*
X174668349Y-45831000D01*
X167137651Y-40865000D02*
X167937651Y-40865000D01*
X172668349Y-39255000D02*
X172668349Y-42140000D01*
X174108349Y-39991000D02*
X174108349Y-42140000D01*
X172388349Y-39186000D02*
X172388349Y-47174000D01*
X173908349Y-39842000D02*
X173908349Y-42140000D01*
X172588349Y-39233000D02*
X172588349Y-42140000D01*
X173748349Y-39736000D02*
X173748349Y-42140000D01*
X173068349Y-39390000D02*
X173068349Y-42140000D01*
X173948349Y-39871000D02*
X173948349Y-42140000D01*
X173828349Y-44220000D02*
X173828349Y-46572000D01*
X171587349Y-39100000D02*
X171587349Y-47260000D01*
X173628349Y-39663000D02*
X173628349Y-42140000D01*
X174548349Y-40396000D02*
X174548349Y-45964000D01*
X172308349Y-39170000D02*
X172308349Y-47190000D01*
X174428349Y-40273000D02*
X174428349Y-42140000D01*
X174348349Y-44220000D02*
X174348349Y-46163000D01*
X173268349Y-44220000D02*
X173268349Y-46884000D01*
X171747349Y-39104000D02*
X171747349Y-47256000D01*
X174468349Y-40313000D02*
X174468349Y-42140000D01*
X172468349Y-44220000D02*
X172468349Y-47156000D01*
X175188349Y-41290000D02*
X175188349Y-45070000D01*
X173468349Y-39574000D02*
X173468349Y-42140000D01*
X171987349Y-39123000D02*
X171987349Y-47237000D01*
X174148349Y-40024000D02*
X174148349Y-42140000D01*
X171547349Y-39100000D02*
X171547349Y-47260000D01*
X171827349Y-39109000D02*
X171827349Y-47251000D01*
X173428349Y-39553000D02*
X173428349Y-42140000D01*
X172428349Y-44220000D02*
X172428349Y-47165000D01*
X175308349Y-41535000D02*
X175308349Y-44825000D01*
X174308349Y-44220000D02*
X174308349Y-46199000D01*
X173228349Y-44220000D02*
X173228349Y-46902000D01*
X175388349Y-41727000D02*
X175388349Y-44633000D01*
X174468349Y-44220000D02*
X174468349Y-46047000D01*
X173108349Y-44220000D02*
X173108349Y-46954000D01*
X174228349Y-44220000D02*
X174228349Y-46270000D01*
X171707349Y-39103000D02*
X171707349Y-47257000D01*
X174228349Y-40090000D02*
X174228349Y-42140000D01*
X173308349Y-39494000D02*
X173308349Y-42140000D01*
X173388349Y-39533000D02*
X173388349Y-42140000D01*
X173148349Y-44220000D02*
X173148349Y-46937000D01*
X174388349Y-40235000D02*
X174388349Y-42140000D01*
X174588349Y-40439000D02*
X174588349Y-45921000D01*
X173668349Y-44220000D02*
X173668349Y-46673000D01*
X174708349Y-40576000D02*
X174708349Y-45784000D01*
X172748349Y-39278000D02*
X172748349Y-42140000D01*
X172268349Y-39163000D02*
X172268349Y-47197000D01*
X173988349Y-44220000D02*
X173988349Y-46460000D01*
X172067349Y-39132000D02*
X172067349Y-47228000D01*
X172948349Y-39345000D02*
X172948349Y-42140000D01*
X173788349Y-39762000D02*
X173788349Y-42140000D01*
X172908349Y-44220000D02*
X172908349Y-47030000D01*
X173868349Y-44220000D02*
X173868349Y-46545000D01*
X173068349Y-44220000D02*
X173068349Y-46970000D01*
X172788349Y-44220000D02*
X172788349Y-47069000D01*
X175028349Y-41014000D02*
X175028349Y-45346000D01*
X171667349Y-39101000D02*
X171667349Y-47259000D01*
X174068349Y-44220000D02*
X174068349Y-46400000D01*
X172107349Y-39138000D02*
X172107349Y-47222000D01*
X175108349Y-41146000D02*
X175108349Y-45214000D01*
X172348349Y-39178000D02*
X172348349Y-47182000D01*
X174428349Y-44220000D02*
X174428349Y-46087000D01*
X173868349Y-39815000D02*
X173868349Y-42140000D01*
X175508349Y-42082000D02*
X175508349Y-44278000D01*
X171627349Y-39100000D02*
X171627349Y-47260000D01*
X174868349Y-40780000D02*
X174868349Y-45580000D01*
X172828349Y-44220000D02*
X172828349Y-47057000D01*
X172227349Y-39156000D02*
X172227349Y-47204000D01*
X174188349Y-40056000D02*
X174188349Y-42140000D01*
X173588349Y-44220000D02*
X173588349Y-46720000D01*
X172988349Y-39359000D02*
X172988349Y-42140000D01*
X172588349Y-44220000D02*
X172588349Y-47127000D01*
X172708349Y-39266000D02*
X172708349Y-42140000D01*
X171787349Y-39106000D02*
X171787349Y-47254000D01*
X175348349Y-41628000D02*
X175348349Y-44732000D01*
X172548349Y-39223000D02*
X172548349Y-42140000D01*
X175588349Y-42412000D02*
X175588349Y-43948000D01*
X172988349Y-44220000D02*
X172988349Y-47001000D01*
X172628349Y-39244000D02*
X172628349Y-42140000D01*
X173148349Y-39423000D02*
X173148349Y-42140000D01*
X172428349Y-39195000D02*
X172428349Y-42140000D01*
X172868349Y-39317000D02*
X172868349Y-42140000D01*
X173388349Y-44220000D02*
X173388349Y-46827000D01*
X173428349Y-44220000D02*
X173428349Y-46807000D01*
X175667349Y-43180000D02*
G75*
G03*
X175667349Y-43180000I-4120000J0D01*
G01*
%TO.C,SW 3*%
X131615000Y-81655000D02*
X131615000Y-72935000D01*
X130315000Y-83355000D02*
X131615000Y-81655000D01*
X127495000Y-83355000D02*
X130315000Y-83355000D01*
X127495000Y-83355000D02*
X126195000Y-81655000D01*
X126195000Y-72935000D02*
X131615000Y-72935000D01*
X126195000Y-81655000D02*
X126195000Y-72935000D01*
%TO.C,SW 2*%
X117335000Y-83355000D02*
X116035000Y-81655000D01*
X120155000Y-83355000D02*
X121455000Y-81655000D01*
X116035000Y-81655000D02*
X116035000Y-72935000D01*
X117335000Y-83355000D02*
X120155000Y-83355000D01*
X116035000Y-72935000D02*
X121455000Y-72935000D01*
X121455000Y-81655000D02*
X121455000Y-72935000D01*
%TO.C,A4988*%
X168970000Y-92049600D02*
X168970000Y-74209600D01*
X168970000Y-92049600D02*
X166310000Y-92049600D01*
X168970000Y-74209600D02*
X166310000Y-74209600D01*
X168970000Y-93319600D02*
X168970000Y-94649600D01*
X166310000Y-92049600D02*
X166310000Y-74209600D01*
X168970000Y-94649600D02*
X167640000Y-94649600D01*
%TO.C,R2*%
X118985000Y-105600000D02*
X118985000Y-104830000D01*
X117615000Y-98290000D02*
X117615000Y-104830000D01*
X117615000Y-104830000D02*
X120355000Y-104830000D01*
X120355000Y-104830000D02*
X120355000Y-98290000D01*
X120355000Y-98290000D02*
X117615000Y-98290000D01*
X118985000Y-97520000D02*
X118985000Y-98290000D01*
%TO.C,M3*%
X193287000Y-63508000D02*
X193241000Y-63461000D01*
X193071000Y-58621000D02*
X193036000Y-58586000D01*
X199571000Y-72415000D02*
X189650000Y-72415000D01*
X195585000Y-60725000D02*
X195549000Y-60690000D01*
X193287000Y-58428000D02*
X193241000Y-58381000D01*
X193071000Y-68781000D02*
X193036000Y-68746000D01*
X195585000Y-70885000D02*
X195549000Y-70850000D01*
X189650000Y-51975000D02*
X189650000Y-72415000D01*
X191710000Y-51975000D02*
X191710000Y-72415000D01*
X195379000Y-60930000D02*
X195333000Y-60883000D01*
X193287000Y-68588000D02*
X193241000Y-68541000D01*
X196611000Y-51975000D02*
X196611000Y-72415000D01*
X195379000Y-71090000D02*
X195333000Y-71043000D01*
X195585000Y-65805000D02*
X195549000Y-65770000D01*
X189410000Y-51735000D02*
X189410000Y-52235000D01*
X193071000Y-63701000D02*
X193036000Y-63666000D01*
X199571000Y-51975000D02*
X189650000Y-51975000D01*
X190150000Y-51735000D02*
X189410000Y-51735000D01*
X195379000Y-66010000D02*
X195333000Y-65963000D01*
X199571000Y-51975000D02*
X199571000Y-72415000D01*
X190210000Y-51975000D02*
X190210000Y-72415000D01*
X194994000Y-53040000D02*
G75*
G03*
X193626958Y-53039573I-684001J-1534993D01*
G01*
X195845000Y-55259000D02*
G75*
G03*
X195845427Y-53891958I-1534993J684001D01*
G01*
X192630000Y-54575000D02*
G75*
G03*
X192775244Y-55258318I1680000J0D01*
G01*
X192775000Y-53891000D02*
G75*
G03*
X192629747Y-54603805I1535001J-683999D01*
G01*
X193626000Y-56110001D02*
G75*
G03*
X194993042Y-56110427I684000J1535001D01*
G01*
X195990000Y-59655000D02*
G75*
G03*
X195990000Y-59655000I-1680000J0D01*
G01*
X195990000Y-69815000D02*
G75*
G03*
X195990000Y-69815000I-1680000J0D01*
G01*
X195990000Y-64735000D02*
G75*
G03*
X195990000Y-64735000I-1680000J0D01*
G01*
%TO.C,REF\u002A\u002A*%
X143690000Y-57175000D02*
X143690000Y-51975000D01*
X118170000Y-54575000D02*
X118170000Y-51975000D01*
X120770000Y-57175000D02*
X120770000Y-54575000D01*
X119500000Y-57175000D02*
X118170000Y-57175000D01*
X118170000Y-57175000D02*
X118170000Y-55845000D01*
X120770000Y-57175000D02*
X143690000Y-57175000D01*
X118170000Y-51975000D02*
X143690000Y-51975000D01*
X120770000Y-54575000D02*
X118170000Y-54575000D01*
X182940000Y-92049600D02*
X182940000Y-74209600D01*
X182940000Y-93319600D02*
X182940000Y-94649600D01*
X182940000Y-74209600D02*
X180280000Y-74209600D01*
X182940000Y-94649600D02*
X181610000Y-94649600D01*
X180280000Y-92049600D02*
X180280000Y-74209600D01*
X182940000Y-92049600D02*
X180280000Y-92049600D01*
%TO.C,C5*%
X125355000Y-108260000D02*
X125355000Y-100020000D01*
X122615000Y-108260000D02*
X122615000Y-100020000D01*
X122615000Y-100020000D02*
X125355000Y-100020000D01*
X122615000Y-108260000D02*
X125355000Y-108260000D01*
%TO.C,A4988*%
X169122400Y-116900000D02*
X167792400Y-116900000D01*
X166462400Y-114300000D02*
X166462400Y-96460000D01*
X169122400Y-115570000D02*
X169122400Y-116900000D01*
X169122400Y-96460000D02*
X166462400Y-96460000D01*
X169122400Y-114300000D02*
X166462400Y-114300000D01*
X169122400Y-114300000D02*
X169122400Y-96460000D01*
%TO.C,REF\u002A\u002A*%
X182940000Y-69830000D02*
X182940000Y-51990000D01*
X182940000Y-71100000D02*
X182940000Y-72430000D01*
X182940000Y-51990000D02*
X180280000Y-51990000D01*
X182940000Y-72430000D02*
X181610000Y-72430000D01*
X180280000Y-69830000D02*
X180280000Y-51990000D01*
X182940000Y-69830000D02*
X180280000Y-69830000D01*
%TO.C,M1*%
X193287000Y-107993000D02*
X193241000Y-107946000D01*
X193071000Y-103106000D02*
X193036000Y-103071000D01*
X199571000Y-116900000D02*
X189650000Y-116900000D01*
X195585000Y-105210000D02*
X195549000Y-105175000D01*
X193287000Y-102913000D02*
X193241000Y-102866000D01*
X193071000Y-113266000D02*
X193036000Y-113231000D01*
X195585000Y-115370000D02*
X195549000Y-115335000D01*
X189650000Y-96460000D02*
X189650000Y-116900000D01*
X191710000Y-96460000D02*
X191710000Y-116900000D01*
X195379000Y-105415000D02*
X195333000Y-105368000D01*
X193287000Y-113073000D02*
X193241000Y-113026000D01*
X196611000Y-96460000D02*
X196611000Y-116900000D01*
X195379000Y-115575000D02*
X195333000Y-115528000D01*
X195585000Y-110290000D02*
X195549000Y-110255000D01*
X189410000Y-96220000D02*
X189410000Y-96720000D01*
X193071000Y-108186000D02*
X193036000Y-108151000D01*
X199571000Y-96460000D02*
X189650000Y-96460000D01*
X190150000Y-96220000D02*
X189410000Y-96220000D01*
X195379000Y-110495000D02*
X195333000Y-110448000D01*
X199571000Y-96460000D02*
X199571000Y-116900000D01*
X190210000Y-96460000D02*
X190210000Y-116900000D01*
X194994000Y-97525000D02*
G75*
G03*
X193626958Y-97524573I-684001J-1534993D01*
G01*
X195845000Y-99744000D02*
G75*
G03*
X195845427Y-98376958I-1534993J684001D01*
G01*
X192630000Y-99060000D02*
G75*
G03*
X192775244Y-99743318I1680000J0D01*
G01*
X192775000Y-98376000D02*
G75*
G03*
X192629747Y-99088805I1535001J-683999D01*
G01*
X193626000Y-100595001D02*
G75*
G03*
X194993042Y-100595427I684000J1535001D01*
G01*
X195990000Y-104140000D02*
G75*
G03*
X195990000Y-104140000I-1680000J0D01*
G01*
X195990000Y-114300000D02*
G75*
G03*
X195990000Y-114300000I-1680000J0D01*
G01*
X195990000Y-109220000D02*
G75*
G03*
X195990000Y-109220000I-1680000J0D01*
G01*
%TO.C,SW 1*%
X109995000Y-83355000D02*
X111295000Y-81655000D01*
X105875000Y-81655000D02*
X105875000Y-72935000D01*
X111295000Y-81655000D02*
X111295000Y-72935000D01*
X105875000Y-72935000D02*
X111295000Y-72935000D01*
X107175000Y-83355000D02*
X109995000Y-83355000D01*
X107175000Y-83355000D02*
X105875000Y-81655000D01*
%TD*%
%LPC*%
D12*
%TO.C,REF\u002A\u002A*%
X181610000Y-115555000D03*
D13*
X181610000Y-113015000D03*
X181610000Y-110475000D03*
X181610000Y-107935000D03*
X181610000Y-105395000D03*
X181610000Y-102855000D03*
X181610000Y-100315000D03*
X181610000Y-97775000D03*
%TD*%
D14*
%TO.C,REF\u002A\u002A*%
X111760000Y-41170000D03*
%TD*%
D15*
%TO.C,C6*%
X113985000Y-101640000D03*
X113985000Y-106640000D03*
%TD*%
D12*
%TO.C,A4988*%
X167640000Y-71100000D03*
D13*
X167640000Y-68560000D03*
X167640000Y-66020000D03*
X167640000Y-63480000D03*
X167640000Y-60940000D03*
X167640000Y-58400000D03*
X167640000Y-55860000D03*
X167640000Y-53320000D03*
%TD*%
D16*
%TO.C,R1*%
X109220000Y-96480000D03*
D15*
X109220000Y-106640000D03*
%TD*%
%TO.C,C4*%
X133985000Y-101640000D03*
X133985000Y-106640000D03*
%TD*%
D17*
%TO.C,M2*%
X194310000Y-92049600D03*
X194310000Y-86969600D03*
X194310000Y-81889600D03*
D18*
X194310000Y-76809600D03*
%TD*%
D16*
%TO.C,R3*%
X128985000Y-96480000D03*
D15*
X128985000Y-106640000D03*
%TD*%
D18*
%TO.C,REF\u002A\u002A*%
X157475000Y-39675000D03*
D17*
X162555000Y-39675000D03*
%TD*%
D19*
%TO.C,C1*%
X169647349Y-43180000D03*
D15*
X173447349Y-43180000D03*
%TD*%
D20*
%TO.C,SW 3*%
X128905000Y-75645000D03*
D21*
X128905000Y-80645000D03*
%TD*%
D14*
%TO.C,REF\u002A\u002A*%
X194032000Y-41086000D03*
%TD*%
D21*
%TO.C,SW 2*%
X118745000Y-80645000D03*
D20*
X118745000Y-75645000D03*
%TD*%
D13*
%TO.C,A4988*%
X167640000Y-75539600D03*
X167640000Y-78079600D03*
X167640000Y-80619600D03*
X167640000Y-83159600D03*
X167640000Y-85699600D03*
X167640000Y-88239600D03*
X167640000Y-90779600D03*
D12*
X167640000Y-93319600D03*
%TD*%
D16*
%TO.C,R2*%
X118985000Y-96480000D03*
D15*
X118985000Y-106640000D03*
%TD*%
D18*
%TO.C,M3*%
X194310000Y-54575000D03*
D17*
X194310000Y-59655000D03*
X194310000Y-64735000D03*
X194310000Y-69815000D03*
%TD*%
D12*
%TO.C,REF\u002A\u002A*%
X119500000Y-55845000D03*
D13*
X119500000Y-53305000D03*
X122040000Y-55845000D03*
X122040000Y-53305000D03*
X124580000Y-55845000D03*
X124580000Y-53305000D03*
X127120000Y-55845000D03*
X127120000Y-53305000D03*
X129660000Y-55845000D03*
X129660000Y-53305000D03*
X132200000Y-55845000D03*
X132200000Y-53305000D03*
X134740000Y-55845000D03*
X134740000Y-53305000D03*
X137280000Y-55845000D03*
X137280000Y-53305000D03*
X139820000Y-55845000D03*
X139820000Y-53305000D03*
X142360000Y-55845000D03*
X142360000Y-53305000D03*
%TD*%
D14*
%TO.C,REF\u002A\u002A*%
X194032000Y-122966699D03*
%TD*%
D12*
%TO.C,REF\u002A\u002A*%
X181610000Y-93319600D03*
D13*
X181610000Y-90779600D03*
X181610000Y-88239600D03*
X181610000Y-85699600D03*
X181610000Y-83159600D03*
X181610000Y-80619600D03*
X181610000Y-78079600D03*
X181610000Y-75539600D03*
%TD*%
D15*
%TO.C,C5*%
X123985000Y-101640000D03*
X123985000Y-106640000D03*
%TD*%
D14*
%TO.C,REF\u002A\u002A*%
X111760000Y-123050699D03*
%TD*%
D12*
%TO.C,A4988*%
X167792400Y-115570000D03*
D13*
X167792400Y-113030000D03*
X167792400Y-110490000D03*
X167792400Y-107950000D03*
X167792400Y-105410000D03*
X167792400Y-102870000D03*
X167792400Y-100330000D03*
X167792400Y-97790000D03*
%TD*%
D12*
%TO.C,REF\u002A\u002A*%
X181610000Y-71100000D03*
D13*
X181610000Y-68560000D03*
X181610000Y-66020000D03*
X181610000Y-63480000D03*
X181610000Y-60940000D03*
X181610000Y-58400000D03*
X181610000Y-55860000D03*
X181610000Y-53320000D03*
%TD*%
D18*
%TO.C,M1*%
X194310000Y-99060000D03*
D17*
X194310000Y-104140000D03*
X194310000Y-109220000D03*
X194310000Y-114300000D03*
%TD*%
D20*
%TO.C,SW 1*%
X108585000Y-75645000D03*
D21*
X108585000Y-80645000D03*
%TD*%
M02*
